<?xml version="1.0" encoding="UTF-8"?>
<svg version="1.1" xmlns="http://www.w3.org/2000/svg" width="1024" height="1024">
<path d="M0 0 C0.33 0.66 0.66 1.32 1 2 C2.1446875 1.7525 2.1446875 1.7525 3.3125 1.5 C7.26976111 0.76376537 11.23385693 1.00369759 15.25294495 1.0111084 C25.34191051 1.0296317 35.43087426 1.04267598 45.51985264 1.05181217 C51.10658612 1.05704493 56.6933045 1.06415376 62.2800293 1.07543945 C67.67806586 1.08627408 73.07608785 1.09227765 78.47413445 1.09487724 C80.53509692 1.09672942 82.59605857 1.10034608 84.65701485 1.10573006 C87.53251016 1.11294875 90.4079444 1.11399063 93.28344727 1.11352539 C94.14116226 1.11712067 94.99887726 1.12071594 95.88258362 1.12442017 C100.07477059 1.23265207 100.07477059 1.23265207 104 0 C104 0.66 104 1.32 104 2 C105.91157646 1.75650314 105.91157646 1.75650314 107.86177063 1.50808716 C115.95783546 0.70591329 124.08535986 0.86049579 132.21166992 0.87060547 C134.04772476 0.86924849 135.88377932 0.86746689 137.71983337 0.86529541 C142.68757606 0.86075219 147.65529788 0.86249894 152.62304091 0.8656745 C157.84930585 0.86821916 163.07556909 0.86585425 168.30183411 0.86428833 C177.0904675 0.86247067 185.87909249 0.86486017 194.66772461 0.86962891 C204.77172882 0.87504871 214.87571278 0.87332391 224.97971648 0.8678025 C233.69528155 0.8632334 242.4108406 0.8626399 251.12640649 0.86524117 C256.31315301 0.86678605 261.49989009 0.86704802 266.68663597 0.86370468 C308.02595141 0.84058178 308.02595141 0.84058178 327 2 C327.33 1.34 327.66 0.68 328 0 C328 0.66 328 1.32 328 2 C328.91136719 1.91621094 329.82273437 1.83242187 330.76171875 1.74609375 C342.25149095 0.84291763 353.50787175 1.2607893 365 2 C365.33 1.34 365.66 0.68 366 0 C366 0.66 366 1.32 366 2 C366.61101563 1.9278125 367.22203125 1.855625 367.8515625 1.78125 C374.40331173 1.11684726 380.87288093 0.92609559 387.453125 0.94921875 C388.39348602 0.95116745 389.33384705 0.95311615 390.30270386 0.9551239 C402.13625255 0.99094869 413.96941676 1.08468248 425.80203056 1.23572731 C429.31998478 1.28043691 432.83781519 1.31983372 436.35595703 1.34643555 C455.94961484 1.49891134 475.55177068 1.68723433 494.375 7.8125 C495.20185303 8.07329346 496.02870605 8.33408691 496.88061523 8.6027832 C533.50147453 20.42089677 564.47325447 45.05912896 583.93798828 78.19287109 C584.85836065 79.75898517 585.80031702 81.31237668 586.74609375 82.86328125 C591.37108232 90.77982013 594.13300009 99.33362894 597 108 C597.33 108.99 597.66 109.98 598 111 C602.89393494 130.18384908 602.58823353 149.5400953 602.54880548 169.17218578 C602.54379937 173.87663147 602.56202272 178.58099973 602.57722473 183.28541565 C602.60040716 191.41700046 602.60929088 199.54849643 602.60811615 207.68011284 C602.60643439 219.47144864 602.62691391 231.26266777 602.65247145 243.05397225 C602.69345551 262.23706628 602.7168352 281.42013911 602.72900391 300.60327148 C602.7408023 319.14333159 602.76096865 337.68335114 602.79248047 356.22338867 C602.79441657 357.36418141 602.79635267 358.50497414 602.79834744 359.68033635 C602.80811956 365.4087837 602.81805093 371.13723076 602.82805204 376.86567771 C602.89072673 412.88757058 602.94029204 448.90946272 602.97167969 484.93139648 C602.97247615 485.82896207 602.9732726 486.72652766 602.9740932 487.6512922 C602.98282882 497.50589475 602.99055872 507.36049671 602.99580875 517.21510177 C602.99832213 521.76572001 603.00219525 526.31633461 603.00710319 530.86695088 C603.01005648 533.79378453 603.01207321 536.72061834 603.01387444 539.6474529 C603.01537705 541.62780948 603.01800142 543.60816512 603.02067637 545.58852047 C603.02558431 556.2319638 602.81937738 566.86194687 602.5 577.5 C602.45141558 579.23306155 602.40323987 580.9661346 602.35546875 582.69921875 C602.24160749 586.79962504 602.12250945 590.89984338 602 595 C602.66 595.33 603.32 595.66 604 596 C603.34 596 602.68 596 602 596 C602.00666183 596.78910263 602.01332367 597.57820526 602.02018738 598.39122009 C602.08083364 605.90585567 602.12624201 613.42036905 602.15543652 620.93518734 C602.17095128 624.79666197 602.1919222 628.65793084 602.22631836 632.51928711 C602.38593871 650.93016998 602.21350873 668.17384864 597 686 C597.66 686.33 598.32 686.66 599 687 C598.01 687 597.02 687 596 687 C595.90332031 687.81082031 595.80664062 688.62164063 595.70703125 689.45703125 C591.95323828 708.26747446 579.49757787 726.83289837 567 741 C566.15953125 741.97195313 565.3190625 742.94390625 564.453125 743.9453125 C556.31862795 753.19408436 547.20157674 760.68277286 536.99609375 767.58984375 C534.90300531 768.98397574 534.90300531 768.98397574 533 771 C530.63970541 772.33307592 528.2754935 773.6187106 525.875 774.875 C525.235625 775.21402344 524.59625 775.55304687 523.9375 775.90234375 C521.96339864 776.94489125 519.98225402 777.97305204 518 779 C517.3517627 779.34377686 516.70352539 779.68755371 516.03564453 780.04174805 C511.19896906 782.55344403 506.32286911 784.43520359 501.125 786.0625 C499.90139771 786.44764771 499.90139771 786.44764771 498.65307617 786.84057617 C490.23416313 789.38899078 481.71036429 790.86754909 473 792 C471.81832862 792.16834689 470.63665725 792.33669378 469.41917765 792.51014209 C464.94523893 793.06530372 460.53780788 793.14140249 456.03412437 793.13142776 C454.72589626 793.13450672 454.72589626 793.13450672 453.39123929 793.13764787 C450.47234953 793.14329676 447.55350728 793.14186322 444.63461304 793.14044189 C442.5191151 793.14302676 440.40361764 793.14604026 438.28812087 793.1494453 C432.47685622 793.15750466 426.66560393 793.15930428 420.85433435 793.16004276 C414.58541693 793.16189524 408.31650589 793.16944371 402.04759216 793.17617798 C387.62349438 793.19046371 373.19939982 793.19628766 358.77529629 793.20086992 C351.64054634 793.20320831 344.50579719 793.2068113 337.37104786 793.2105653 C312.92730991 793.22340116 288.48357241 793.2341188 264.03983116 793.2375679 C262.50598827 793.23778953 260.97214538 793.23801132 259.43830249 793.23823325 C257.90083451 793.23845389 256.36336652 793.23867437 254.82589853 793.2388947 C251.74167975 793.23933724 248.65746097 793.23978436 245.57324219 793.24023438 C244.80853799 793.24034377 244.04383379 793.24045316 243.25595674 793.24056586 C218.48475091 793.24419296 193.71357442 793.2600997 168.94237982 793.28342474 C142.72710364 793.30806419 116.5118442 793.32174271 90.29655612 793.32293582 C87.4142123 793.32310726 84.5318685 793.32332268 81.64952469 793.32357025 C80.9398575 793.32362602 80.23019031 793.32368179 79.49901806 793.32373925 C68.11519292 793.32488632 56.73139805 793.33587923 45.3475831 793.35045731 C33.88620174 793.3648799 22.42487287 793.36777615 10.96348225 793.36001733 C4.76334749 793.35612529 -1.43668623 793.3569693 -7.6368084 793.37107468 C-13.32713277 793.38390107 -19.01728109 793.38254013 -24.70760553 793.37048396 C-26.75216053 793.36854195 -28.79672838 793.37153502 -30.8412654 793.38032833 C-49.52028414 793.45549459 -68.09490264 792.18667887 -85.8125 785.875 C-87.51321655 785.28730835 -87.51321655 785.28730835 -89.24829102 784.68774414 C-98.69625635 781.32062508 -107.44792201 777.22266141 -116 772 C-117.04542969 771.37738281 -118.09085937 770.75476563 -119.16796875 770.11328125 C-127.8490342 764.64317792 -135.42045211 757.8720001 -143 751 C-144.12535156 750.00226563 -144.12535156 750.00226563 -145.2734375 748.984375 C-151.92466732 742.75410909 -157.14829568 735.14431787 -162.58422852 727.86791992 C-163.79915223 726.26499161 -165.05765737 724.69525965 -166.32421875 723.1328125 C-168.14286323 720.81817407 -168.99217834 718.75471254 -170 716 C-172.01356919 711.66145477 -172.01356919 711.66145477 -175 708 C-175.91097539 705.91979763 -176.75696048 703.81075791 -177.5625 701.6875 C-178.21412109 699.99173828 -178.21412109 699.99173828 -178.87890625 698.26171875 C-180 695 -180 695 -180.52734375 692.14453125 C-180.68332031 691.43683594 -180.83929688 690.72914063 -181 690 C-181.66 689.67 -182.32 689.34 -183 689 C-183.76238418 686.00128889 -184.3953025 683.03177104 -185 680 C-185.25007813 678.89140625 -185.50015625 677.7828125 -185.7578125 676.640625 C-186.02335937 675.45984375 -186.28890625 674.2790625 -186.5625 673.0625 C-186.81128906 671.96035156 -187.06007813 670.85820313 -187.31640625 669.72265625 C-188.97604341 660.68474645 -189.26423647 651.5503289 -189.5546875 642.3828125 C-189.59673309 641.07998322 -189.63877869 639.77715393 -189.68209839 638.43484497 C-190.09466091 624.92653337 -190.15355979 611.42039707 -190.13037109 597.90673828 C-190.12457012 594.49866567 -190.12804467 591.09067009 -190.13394356 587.68260002 C-190.13844927 584.34828984 -190.13528918 581.01399985 -190.1328125 577.6796875 C-190.13483673 576.47956024 -190.13686096 575.27943298 -190.13894653 574.04293823 C-190.11856119 566.64748679 -189.73478641 559.35907182 -189 552 C-189.66 552 -190.32 552 -191 552 C-191.20086443 548.28400809 -191.1519437 547.22791555 -189 544 C-189.66 543.67 -190.32 543.34 -191 543 C-190.34 543 -189.68 543 -189 543 C-189.185625 541.72125 -189.37125 540.4425 -189.5625 539.125 C-190.15229454 533.97248934 -189.69480064 529.12014627 -189 524 C-189.66 523.67 -190.32 523.34 -191 523 C-190.34 523 -189.68 523 -189 523 C-189 521.35 -189 519.7 -189 518 C-189.66 518 -190.32 518 -191 518 C-191 517.34 -191 516.68 -191 516 C-190.34 516 -189.68 516 -189 516 C-189.16265854 515.43733995 -189.32531708 514.87467991 -189.49290466 514.29496956 C-190.02727438 511.8765639 -190.12023084 509.75551004 -190.11352539 507.28048706 C-190.1134549 506.33549347 -190.1133844 505.39049988 -190.11331177 504.41687012 C-190.10814545 503.3871106 -190.10297913 502.35735107 -190.09765625 501.29638672 C-190.09619598 500.2066153 -190.09473572 499.11684387 -190.0932312 497.99404907 C-190.08942571 495.62811709 -190.08330968 493.26218796 -190.07516479 490.89626694 C-190.06242215 487.15684184 -190.05589119 483.41745213 -190.05102539 479.67800903 C-190.03958806 471.74365671 -190.02038598 463.80933286 -190 455.875 C-189.97637995 446.67613238 -189.95604299 437.47727743 -189.94406128 428.27838516 C-189.93755451 424.58562263 -189.92504754 420.89291051 -189.91235352 417.20016479 C-189.90872276 414.94838506 -189.90537081 412.69660485 -189.90234375 410.44482422 C-189.89717743 409.41101624 -189.89201111 408.37720825 -189.88668823 407.31207275 C-189.88661774 406.37271881 -189.88654724 405.43336487 -189.88647461 404.46554565 C-189.88314369 403.23721417 -189.88314369 403.23721417 -189.87974548 401.98406792 C-189.87439159 399.9243148 -189.87439159 399.9243148 -191 398 C-190.34 398 -189.68 398 -189 398 C-189 393.71 -189 389.42 -189 385 C-189.66 385 -190.32 385 -191 385 C-190.67 384.34 -190.34 383.68 -190 383 C-189.9082819 381.0875734 -189.88249239 379.17186848 -189.88647461 377.25724792 C-189.88654825 376.03124123 -189.88662189 374.80523453 -189.88669777 373.54207611 C-189.89183629 372.17282584 -189.89705439 370.80357587 -189.90234375 369.43432617 C-189.90423707 367.99407756 -189.90567187 366.55382829 -189.90668297 365.1135788 C-189.90980579 361.9910529 -189.91605751 358.86855399 -189.92466354 355.74603844 C-189.93837002 350.73880168 -189.94492889 345.73157114 -189.9503479 340.72431946 C-189.95861994 333.58492521 -189.96960938 326.44554013 -189.98223877 319.30615234 C-190.01402181 300.91635577 -190.02074142 282.52653967 -190.0234375 264.13671875 C-190.02359973 263.23366737 -190.02376197 262.33061599 -190.02392912 261.40019941 C-190.02856595 232.29158181 -189.98183307 203.18488689 -189.65301514 174.0777626 C-189.62521991 171.52023441 -189.60115652 168.962696 -189.578125 166.40512085 C-189.54212049 162.48592831 -189.49638862 158.56697963 -189.44193649 154.64800072 C-189.41577015 152.6609288 -189.39715098 150.67376157 -189.37905884 148.68659973 C-189.15947198 135.5338141 -187.70512917 122.68459 -183.875 110.0625 C-183.56715576 109.03817871 -183.25931152 108.01385742 -182.94213867 106.95849609 C-176.03558993 84.74135844 -163.68572872 66.04484475 -148 49 C-146.99066406 47.88431641 -146.99066406 47.88431641 -145.9609375 46.74609375 C-132.15638523 32.20725678 -114.18753106 21.14002914 -96 13 C-95.34 13 -94.68 13 -94 13 C-93.67 12.34 -93.34 11.68 -93 11 C-91.34405229 10.6169516 -89.6740911 10.293782 -88 10 C-86.03608327 9.39277226 -84.0781216 8.76610098 -82.125 8.125 C-67.68698554 3.62844963 -53.38723786 1.91959747 -38.33984375 1.71875 C-36.14387992 1.68100657 -33.94791638 1.64324566 -31.75195312 1.60546875 C-28.32171498 1.5515583 -24.89145598 1.499308 -21.46118164 1.44775391 C-18.12898947 1.39625317 -14.79693279 1.33898488 -11.46484375 1.28125 C-10.42956039 1.26767456 -9.39427704 1.25409912 -8.32762146 1.2401123 C-7.37895706 1.22339478 -6.43029266 1.20667725 -5.45288086 1.18945312 C-4.61478378 1.17692505 -3.77668671 1.16439697 -2.91319275 1.15148926 C-0.99121082 1.20757264 -0.99121082 1.20757264 0 0 Z M481 209 C482 211 482 211 482 211 Z " fill="#FDFDFE" transform="translate(305,114)"/>
<path d="M0 0 C0.33 0.66 0.66 1.32 1 2 C2.1446875 1.7525 2.1446875 1.7525 3.3125 1.5 C7.26976111 0.76376537 11.23385693 1.00369759 15.25294495 1.0111084 C25.34191051 1.0296317 35.43087426 1.04267598 45.51985264 1.05181217 C51.10658612 1.05704493 56.6933045 1.06415376 62.2800293 1.07543945 C67.67806586 1.08627408 73.07608785 1.09227765 78.47413445 1.09487724 C80.53509692 1.09672942 82.59605857 1.10034608 84.65701485 1.10573006 C87.53251016 1.11294875 90.4079444 1.11399063 93.28344727 1.11352539 C94.14116226 1.11712067 94.99887726 1.12071594 95.88258362 1.12442017 C100.07477059 1.23265207 100.07477059 1.23265207 104 0 C104 0.66 104 1.32 104 2 C105.91157646 1.75650314 105.91157646 1.75650314 107.86177063 1.50808716 C115.95783546 0.70591329 124.08535986 0.86049579 132.21166992 0.87060547 C134.04772476 0.86924849 135.88377932 0.86746689 137.71983337 0.86529541 C142.68757606 0.86075219 147.65529788 0.86249894 152.62304091 0.8656745 C157.84930585 0.86821916 163.07556909 0.86585425 168.30183411 0.86428833 C177.0904675 0.86247067 185.87909249 0.86486017 194.66772461 0.86962891 C204.77172882 0.87504871 214.87571278 0.87332391 224.97971648 0.8678025 C233.69528155 0.8632334 242.4108406 0.8626399 251.12640649 0.86524117 C256.31315301 0.86678605 261.49989009 0.86704802 266.68663597 0.86370468 C308.02595141 0.84058178 308.02595141 0.84058178 327 2 C327.33 1.34 327.66 0.68 328 0 C328 0.66 328 1.32 328 2 C328.91136719 1.91621094 329.82273437 1.83242187 330.76171875 1.74609375 C342.25149095 0.84291763 353.50787175 1.2607893 365 2 C365.33 1.34 365.66 0.68 366 0 C366 0.66 366 1.32 366 2 C366.61101563 1.9278125 367.22203125 1.855625 367.8515625 1.78125 C374.40331173 1.11684726 380.87288093 0.92609559 387.453125 0.94921875 C388.39348602 0.95116745 389.33384705 0.95311615 390.30270386 0.9551239 C402.13625255 0.99094869 413.96941676 1.08468248 425.80203056 1.23572731 C429.31998478 1.28043691 432.83781519 1.31983372 436.35595703 1.34643555 C455.94961484 1.49891134 475.55177068 1.68723433 494.375 7.8125 C495.20185303 8.07329346 496.02870605 8.33408691 496.88061523 8.6027832 C533.50147453 20.42089677 564.47325447 45.05912896 583.93798828 78.19287109 C584.85836065 79.75898517 585.80031702 81.31237668 586.74609375 82.86328125 C591.37108232 90.77982013 594.13300009 99.33362894 597 108 C597.33 108.99 597.66 109.98 598 111 C602.89393494 130.18384908 602.58823353 149.5400953 602.54880548 169.17218578 C602.54379937 173.87663147 602.56202272 178.58099973 602.57722473 183.28541565 C602.60040716 191.41700046 602.60929088 199.54849643 602.60811615 207.68011284 C602.60643439 219.47144864 602.62691391 231.26266777 602.65247145 243.05397225 C602.69345551 262.23706628 602.7168352 281.42013911 602.72900391 300.60327148 C602.7408023 319.14333159 602.76096865 337.68335114 602.79248047 356.22338867 C602.79441657 357.36418141 602.79635267 358.50497414 602.79834744 359.68033635 C602.80811956 365.4087837 602.81805093 371.13723076 602.82805204 376.86567771 C602.89072673 412.88757058 602.94029204 448.90946272 602.97167969 484.93139648 C602.97247615 485.82896207 602.9732726 486.72652766 602.9740932 487.6512922 C602.98282882 497.50589475 602.99055872 507.36049671 602.99580875 517.21510177 C602.99832213 521.76572001 603.00219525 526.31633461 603.00710319 530.86695088 C603.01005648 533.79378453 603.01207321 536.72061834 603.01387444 539.6474529 C603.01537705 541.62780948 603.01800142 543.60816512 603.02067637 545.58852047 C603.02558431 556.2319638 602.81937738 566.86194687 602.5 577.5 C602.45141558 579.23306155 602.40323987 580.9661346 602.35546875 582.69921875 C602.24160749 586.79962504 602.12250945 590.89984338 602 595 C602.66 595.33 603.32 595.66 604 596 C603.34 596 602.68 596 602 596 C602.00666183 596.78910263 602.01332367 597.57820526 602.02018738 598.39122009 C602.08083364 605.90585567 602.12624201 613.42036905 602.15543652 620.93518734 C602.17095128 624.79666197 602.1919222 628.65793084 602.22631836 632.51928711 C602.38593871 650.93016998 602.21350873 668.17384864 597 686 C597.66 686.33 598.32 686.66 599 687 C598.01 687 597.02 687 596 687 C595.90332031 687.81082031 595.80664062 688.62164063 595.70703125 689.45703125 C591.95323828 708.26747446 579.49757787 726.83289837 567 741 C566.15953125 741.97195313 565.3190625 742.94390625 564.453125 743.9453125 C556.31862795 753.19408436 547.20157674 760.68277286 536.99609375 767.58984375 C534.90300531 768.98397574 534.90300531 768.98397574 533 771 C530.63970541 772.33307592 528.2754935 773.6187106 525.875 774.875 C525.235625 775.21402344 524.59625 775.55304687 523.9375 775.90234375 C521.96339864 776.94489125 519.98225402 777.97305204 518 779 C517.3517627 779.34377686 516.70352539 779.68755371 516.03564453 780.04174805 C511.19896906 782.55344403 506.32286911 784.43520359 501.125 786.0625 C499.90139771 786.44764771 499.90139771 786.44764771 498.65307617 786.84057617 C490.23416313 789.38899078 481.71036429 790.86754909 473 792 C471.81832862 792.16834689 470.63665725 792.33669378 469.41917765 792.51014209 C464.94523893 793.06530372 460.53780788 793.14140249 456.03412437 793.13142776 C454.72589626 793.13450672 454.72589626 793.13450672 453.39123929 793.13764787 C450.47234953 793.14329676 447.55350728 793.14186322 444.63461304 793.14044189 C442.5191151 793.14302676 440.40361764 793.14604026 438.28812087 793.1494453 C432.47685622 793.15750466 426.66560393 793.15930428 420.85433435 793.16004276 C414.58541693 793.16189524 408.31650589 793.16944371 402.04759216 793.17617798 C387.62349438 793.19046371 373.19939982 793.19628766 358.77529629 793.20086992 C351.64054634 793.20320831 344.50579719 793.2068113 337.37104786 793.2105653 C312.92730991 793.22340116 288.48357241 793.2341188 264.03983116 793.2375679 C262.50598827 793.23778953 260.97214538 793.23801132 259.43830249 793.23823325 C257.90083451 793.23845389 256.36336652 793.23867437 254.82589853 793.2388947 C251.74167975 793.23933724 248.65746097 793.23978436 245.57324219 793.24023438 C244.80853799 793.24034377 244.04383379 793.24045316 243.25595674 793.24056586 C218.48475091 793.24419296 193.71357442 793.2600997 168.94237982 793.28342474 C142.72710364 793.30806419 116.5118442 793.32174271 90.29655612 793.32293582 C87.4142123 793.32310726 84.5318685 793.32332268 81.64952469 793.32357025 C80.9398575 793.32362602 80.23019031 793.32368179 79.49901806 793.32373925 C68.11519292 793.32488632 56.73139805 793.33587923 45.3475831 793.35045731 C33.88620174 793.3648799 22.42487287 793.36777615 10.96348225 793.36001733 C4.76334749 793.35612529 -1.43668623 793.3569693 -7.6368084 793.37107468 C-13.32713277 793.38390107 -19.01728109 793.38254013 -24.70760553 793.37048396 C-26.75216053 793.36854195 -28.79672838 793.37153502 -30.8412654 793.38032833 C-49.52028414 793.45549459 -68.09490264 792.18667887 -85.8125 785.875 C-87.51321655 785.28730835 -87.51321655 785.28730835 -89.24829102 784.68774414 C-98.69625635 781.32062508 -107.44792201 777.22266141 -116 772 C-117.04542969 771.37738281 -118.09085937 770.75476563 -119.16796875 770.11328125 C-127.8490342 764.64317792 -135.42045211 757.8720001 -143 751 C-144.12535156 750.00226563 -144.12535156 750.00226563 -145.2734375 748.984375 C-151.92466732 742.75410909 -157.14829568 735.14431787 -162.58422852 727.86791992 C-163.79915223 726.26499161 -165.05765737 724.69525965 -166.32421875 723.1328125 C-168.14286323 720.81817407 -168.99217834 718.75471254 -170 716 C-172.01356919 711.66145477 -172.01356919 711.66145477 -175 708 C-175.91097539 705.91979763 -176.75696048 703.81075791 -177.5625 701.6875 C-178.21412109 699.99173828 -178.21412109 699.99173828 -178.87890625 698.26171875 C-180 695 -180 695 -180.52734375 692.14453125 C-180.68332031 691.43683594 -180.83929688 690.72914063 -181 690 C-181.66 689.67 -182.32 689.34 -183 689 C-183.76238418 686.00128889 -184.3953025 683.03177104 -185 680 C-185.25007813 678.89140625 -185.50015625 677.7828125 -185.7578125 676.640625 C-186.02335937 675.45984375 -186.28890625 674.2790625 -186.5625 673.0625 C-186.81128906 671.96035156 -187.06007813 670.85820313 -187.31640625 669.72265625 C-188.97604341 660.68474645 -189.26423647 651.5503289 -189.5546875 642.3828125 C-189.59673309 641.07998322 -189.63877869 639.77715393 -189.68209839 638.43484497 C-190.09466091 624.92653337 -190.15355979 611.42039707 -190.13037109 597.90673828 C-190.12457012 594.49866567 -190.12804467 591.09067009 -190.13394356 587.68260002 C-190.13844927 584.34828984 -190.13528918 581.01399985 -190.1328125 577.6796875 C-190.13483673 576.47956024 -190.13686096 575.27943298 -190.13894653 574.04293823 C-190.11856119 566.64748679 -189.73478641 559.35907182 -189 552 C-189.66 552 -190.32 552 -191 552 C-191.20086443 548.28400809 -191.1519437 547.22791555 -189 544 C-189.66 543.67 -190.32 543.34 -191 543 C-190.34 543 -189.68 543 -189 543 C-189.185625 541.72125 -189.37125 540.4425 -189.5625 539.125 C-190.15229454 533.97248934 -189.69480064 529.12014627 -189 524 C-189.66 523.67 -190.32 523.34 -191 523 C-190.34 523 -189.68 523 -189 523 C-189 521.35 -189 519.7 -189 518 C-189.66 518 -190.32 518 -191 518 C-191 517.34 -191 516.68 -191 516 C-190.34 516 -189.68 516 -189 516 C-189.16265854 515.43733995 -189.32531708 514.87467991 -189.49290466 514.29496956 C-190.02727438 511.8765639 -190.12023084 509.75551004 -190.11352539 507.28048706 C-190.1134549 506.33549347 -190.1133844 505.39049988 -190.11331177 504.41687012 C-190.10814545 503.3871106 -190.10297913 502.35735107 -190.09765625 501.29638672 C-190.09619598 500.2066153 -190.09473572 499.11684387 -190.0932312 497.99404907 C-190.08942571 495.62811709 -190.08330968 493.26218796 -190.07516479 490.89626694 C-190.06242215 487.15684184 -190.05589119 483.41745213 -190.05102539 479.67800903 C-190.03958806 471.74365671 -190.02038598 463.80933286 -190 455.875 C-189.97637995 446.67613238 -189.95604299 437.47727743 -189.94406128 428.27838516 C-189.93755451 424.58562263 -189.92504754 420.89291051 -189.91235352 417.20016479 C-189.90872276 414.94838506 -189.90537081 412.69660485 -189.90234375 410.44482422 C-189.89717743 409.41101624 -189.89201111 408.37720825 -189.88668823 407.31207275 C-189.88661774 406.37271881 -189.88654724 405.43336487 -189.88647461 404.46554565 C-189.88314369 403.23721417 -189.88314369 403.23721417 -189.87974548 401.98406792 C-189.87439159 399.9243148 -189.87439159 399.9243148 -191 398 C-190.34 398 -189.68 398 -189 398 C-189 393.71 -189 389.42 -189 385 C-189.66 385 -190.32 385 -191 385 C-190.67 384.34 -190.34 383.68 -190 383 C-189.9082819 381.0875734 -189.88249239 379.17186848 -189.88647461 377.25724792 C-189.88654825 376.03124123 -189.88662189 374.80523453 -189.88669777 373.54207611 C-189.89183629 372.17282584 -189.89705439 370.80357587 -189.90234375 369.43432617 C-189.90423707 367.99407756 -189.90567187 366.55382829 -189.90668297 365.1135788 C-189.90980579 361.9910529 -189.91605751 358.86855399 -189.92466354 355.74603844 C-189.93837002 350.73880168 -189.94492889 345.73157114 -189.9503479 340.72431946 C-189.95861994 333.58492521 -189.96960938 326.44554013 -189.98223877 319.30615234 C-190.01402181 300.91635577 -190.02074142 282.52653967 -190.0234375 264.13671875 C-190.02359973 263.23366737 -190.02376197 262.33061599 -190.02392912 261.40019941 C-190.02856595 232.29158181 -189.98183307 203.18488689 -189.65301514 174.0777626 C-189.62521991 171.52023441 -189.60115652 168.962696 -189.578125 166.40512085 C-189.54212049 162.48592831 -189.49638862 158.56697963 -189.44193649 154.64800072 C-189.41577015 152.6609288 -189.39715098 150.67376157 -189.37905884 148.68659973 C-189.15947198 135.5338141 -187.70512917 122.68459 -183.875 110.0625 C-183.56715576 109.03817871 -183.25931152 108.01385742 -182.94213867 106.95849609 C-176.03558993 84.74135844 -163.68572872 66.04484475 -148 49 C-146.99066406 47.88431641 -146.99066406 47.88431641 -145.9609375 46.74609375 C-132.15638523 32.20725678 -114.18753106 21.14002914 -96 13 C-95.34 13 -94.68 13 -94 13 C-93.67 12.34 -93.34 11.68 -93 11 C-91.34405229 10.6169516 -89.6740911 10.293782 -88 10 C-86.03608327 9.39277226 -84.0781216 8.76610098 -82.125 8.125 C-67.68698554 3.62844963 -53.38723786 1.91959747 -38.33984375 1.71875 C-36.14387992 1.68100657 -33.94791638 1.64324566 -31.75195312 1.60546875 C-28.32171498 1.5515583 -24.89145598 1.499308 -21.46118164 1.44775391 C-18.12898947 1.39625317 -14.79693279 1.33898488 -11.46484375 1.28125 C-10.42956039 1.26767456 -9.39427704 1.25409912 -8.32762146 1.2401123 C-7.37895706 1.22339478 -6.43029266 1.20667725 -5.45288086 1.18945312 C-4.61478378 1.17692505 -3.77668671 1.16439697 -2.91319275 1.15148926 C-0.99121082 1.20757264 -0.99121082 1.20757264 0 0 Z M178 67 C176.26678786 67.01398494 174.5330872 66.97963312 172.80078125 66.921875 C165.43580255 66.86477363 158.4262456 67.98037468 151.1875 69.25 C150.52669434 69.3632663 149.86588867 69.47653259 149.18505859 69.5932312 C139.62268381 71.2334007 130.28770865 73.16335992 121 76 C118.58411793 76.69025202 116.16744193 77.37773104 113.75 78.0625 C112.61820313 78.38863281 111.48640625 78.71476562 110.3203125 79.05078125 C105.55896272 80.41196713 100.78156613 81.71190463 96 83 C96 83.66 96 84.32 96 85 C94.9171875 85.07089844 93.834375 85.14179688 92.71875 85.21484375 C86.92698599 85.93881425 81.82731027 88.2798664 76.5 90.5625 C75.48679687 90.98724609 74.47359375 91.41199219 73.4296875 91.84960938 C70.94924408 92.8909276 68.47301316 93.94118541 66 95 C66 95.66 66 96.32 66 97 C64.9275 97.20625 63.855 97.4125 62.75 97.625 C56.74637297 99.09351309 51.42924997 102.12249752 46 105 C46 105.66 46 106.32 46 107 C45.01 107 44.02 107 43 107 C43 107.66 43 108.32 43 109 C42.26587891 109.11609619 41.53175781 109.23219238 40.77539062 109.35180664 C37.96493907 110.00818849 36.06229114 110.9019189 33.59375 112.37109375 C32.77366455 112.85811768 31.9535791 113.3451416 31.10864258 113.84692383 C30.24779053 114.37181396 29.38693848 114.8967041 28.5 115.4375 C27.61014404 115.97592529 26.72028809 116.51435059 25.8034668 117.0690918 C18.4446648 121.58985071 11.69676055 126.55470255 5 132 C3.50237306 133.14893323 2.00255384 134.29501762 0.5 135.4375 C-25.91864699 156.06046575 -50.16549113 180.27680888 -68.3984375 208.54296875 C-69.62229807 210.42054996 -70.88484793 212.27296715 -72.1640625 214.11328125 C-93.61989863 245.09101543 -112.22934332 284.1135941 -117.578125 321.74609375 C-118 324 -118 324 -118.921875 326.58984375 C-120.43080245 331.36264689 -121.18941966 336.1918587 -122 341.125 C-122.165 342.07503906 -122.33 343.02507812 -122.5 344.00390625 C-125.43212183 361.61954441 -126.37232526 379.10157037 -126.3125 396.9375 C-126.31200653 397.95527527 -126.31151306 398.97305054 -126.31100464 400.02166748 C-126.28380465 418.41714465 -125.76141447 436.9249334 -122 455 C-121.34 455 -120.68 455 -120 455 C-119.98582031 455.85078125 -119.97164063 456.7015625 -119.95703125 457.578125 C-118.18007018 502.72254138 -93.24484059 550.80387645 -68 587 C-67.59571777 587.5882959 -67.19143555 588.1765918 -66.77490234 588.78271484 C-60.67979272 597.64635227 -54.07274106 605.89968914 -47 614 C-46.04287109 615.10794922 -46.04287109 615.10794922 -45.06640625 616.23828125 C-43.3900189 618.17019185 -41.69741332 620.08655226 -40 622 C-39.3503125 622.7425 -38.700625 623.485 -38.03125 624.25 C-29.32625994 634.09042355 -20.10917352 643.5917964 -10 652 C-9.06800781 652.79792969 -8.13601563 653.59585938 -7.17578125 654.41796875 C-5.69658203 655.66513672 -5.69658203 655.66513672 -4.1875 656.9375 C-3.27355469 657.70964844 -2.35960937 658.48179687 -1.41796875 659.27734375 C0.91241238 661.29012103 0.91241238 661.29012103 4 661 C4.33 661.99 4.66 662.98 5 664 C6.88365263 665.57376139 8.73960947 666.97957223 10.75 668.375 C11.36125732 668.80417725 11.97251465 669.23335449 12.60229492 669.67553711 C24.47920883 677.89352704 36.84622777 685.46677462 49.5625 692.3125 C50.60627808 692.88109741 50.60627808 692.88109741 51.67114258 693.46118164 C55.12145432 695.27131526 57.01825981 696 61 696 C61 696.66 61 697.32 61 698 C107.86032523 718.89213205 155.45330623 731.19885345 207 731.25 C207.72078735 731.25100708 208.44157471 731.25201416 209.1842041 731.25305176 C232.64586616 731.2312651 256.06661378 729.05268973 279 724 C279.92055176 723.80067871 280.84110352 723.60135742 281.78955078 723.39599609 C294.29335045 720.63320722 306.45606015 717.02142076 318.5625 712.875 C319.79363525 712.45524902 321.02477051 712.03549805 322.29321289 711.60302734 C328.25938889 709.51025603 333.60466305 707.27979694 339 704 C340.62709079 703.36626448 342.27329942 702.77866015 343.9375 702.25 C357.79150309 697.37369332 370.52212708 689.63634874 383 682 C383.61085449 681.62762207 384.22170898 681.25524414 384.85107422 680.87158203 C403.12414935 669.65569454 421.53045287 656.2562184 436.33203125 640.703125 C438.05338671 638.94548804 439.86280718 637.38962666 441.75 635.8125 C451.21147519 627.65221 459.26566099 617.75999923 467 608 C468.07019111 606.68349506 469.14051337 605.36709673 470.2109375 604.05078125 C478.54102095 593.69354763 485.73714381 582.89446682 492.52709961 571.47412109 C493.53284506 569.7847088 494.54707575 568.10032647 495.56860352 566.42041016 C498.56117975 561.49349931 501.3908484 556.5465994 503.9375 551.375 C504.27177002 550.69969238 504.60604004 550.02438477 504.95043945 549.32861328 C510.24676489 538.52085781 514.97427685 527.57896966 518.859375 516.18359375 C520 513 520 513 521.42578125 509.7734375 C527.56728333 495.66820806 531.04475897 480.05511975 534 465 C534.17128418 464.15115234 534.34256836 463.30230469 534.51904297 462.42773438 C535.06876645 459.68359436 535.59987112 456.93644615 536.125 454.1875 C536.28379639 453.38368896 536.44259277 452.57987793 536.60620117 451.75170898 C539.80707266 434.36328193 540.32735185 416.82265339 540.26074219 399.18774414 C540.24997715 395.80532049 540.26073362 392.42342382 540.2734375 389.04101562 C540.28651805 371.34286788 538.77727101 354.50047388 535.375 337.125 C535.1847525 336.14818771 535.1847525 336.14818771 534.99066162 335.15164185 C527.44787276 296.76404808 513.90323297 255.8160336 492 223 C491.34 223 490.68 223 490 223 C489.938125 222.278125 489.87625 221.55625 489.8125 220.8125 C489.20467717 217.83764814 489.20467717 217.83764814 486.75 215.8125 C484.20886422 213.21361114 483.39093606 211.88665293 482 208.6875 C478.47183706 201.19435394 472.85399416 195.16108499 467.56103516 188.86962891 C464.83559986 185.60541504 462.21838065 182.25737808 459.5859375 178.91796875 C457.22843818 176.0669043 455.09662132 174.06441422 452 172 C450.64721885 170.01310269 449.31431695 168.01254782 448 166 C446.50113129 164.16310524 446.50113129 164.16310524 445 163 C444.34 163 443.68 163 443 163 C442.74089844 162.41605469 442.48179687 161.83210938 442.21484375 161.23046875 C438.18520014 153.83199126 430.06387858 148.45449848 423.60302734 143.29980469 C421.90740644 141.92492109 420.24390844 140.51701222 418.58203125 139.1015625 C375.59374207 102.79704553 322.07354559 79.9903468 267 70 C266.09652832 69.83483887 265.19305664 69.66967773 264.26220703 69.49951172 C251.48558412 67.23544825 239.10401983 66.65471967 226.14038086 67.06591797 C224 67 224 67 222.12211609 66.50396729 C219.96763187 65.99231311 218.11597816 65.87313311 215.90576172 65.87060547 C215.11168915 65.86745331 214.31761658 65.86430115 213.4994812 65.86105347 C212.65144928 65.8630777 211.80341736 65.86510193 210.9296875 65.8671875 C209.61352951 65.86575241 209.61352951 65.86575241 208.27078247 65.86428833 C206.41994149 65.86360891 204.5690981 65.86544659 202.71826172 65.86962891 C199.8785267 65.87499334 197.03894893 65.86966929 194.19921875 65.86328125 C192.40104132 65.86394182 190.60286398 65.86522255 188.8046875 65.8671875 C187.95260712 65.86516327 187.10052673 65.86313904 186.22262573 65.86105347 C181.97682063 65.75702 181.97682063 65.75702 178 67 Z " fill="#554388" transform="translate(305,114)"/>
<path d="M0 0 C0.69732616 0.00038647 1.39465233 0.00077293 2.11310959 0.00117111 C36.65770436 0.02519863 70.44854828 1.72742006 103.99658203 10.51660156 C107.10149259 11.32037608 110.21349222 12.0583981 113.33984375 12.7734375 C166.82361497 25.30712796 217.7485032 56.2680219 248.3125 102.375 C249.13041016 103.58736328 249.13041016 103.58736328 249.96484375 104.82421875 C267.60380134 132.38216576 270.761962 167.10173599 263.99267578 198.48046875 C257.93707507 224.25046231 245.18872457 246.86334111 226.81494141 265.81689453 C225.23681385 267.45349025 223.68755567 269.11489534 222.13671875 270.77734375 C208.84606233 284.78962077 193.10365944 295.02500948 176.3125 304.375 C175.66152344 304.74496094 175.01054688 305.11492187 174.33984375 305.49609375 C166.52186829 309.93417679 158.86328928 313.49070629 150.32421875 316.359375 C148.02516898 317.13467064 145.83591113 317.95020477 143.625 318.9375 C133.14235435 323.48657264 122.39067408 326.28746165 111.3125 328.9375 C110.06664627 329.2368898 110.06664627 329.2368898 108.79562378 329.54232788 C106.29059535 330.1421965 103.78439881 330.73678647 101.27734375 331.328125 C100.52046265 331.50690689 99.76358154 331.68568878 98.98376465 331.86988831 C90.47330566 333.84939717 81.99924994 335.41241359 73.3125 336.375 C72.54349365 336.46077301 71.7744873 336.54654602 70.98217773 336.63491821 C68.61371821 336.89411971 66.24454359 337.14544486 63.875 337.39453125 C62.60051247 337.53004898 62.60051247 337.53004898 61.30027771 337.66830444 C56.93713188 338.13083409 52.57313842 338.58264498 48.20727539 339.01879883 C46.98059143 339.14245064 46.98059143 339.14245064 45.72912598 339.26860046 C44.17778777 339.42442809 42.62620042 339.57780123 41.07434082 339.72834778 C37.21551884 340.09404804 37.21551884 340.09404804 33.43234253 340.89674377 C30.81954829 341.4862145 28.43327655 341.48183788 25.75415039 341.46020508 C24.63131149 341.45284836 23.5084726 341.44549164 22.35160828 341.43791199 C21.13342911 341.42359634 19.91524994 341.4092807 18.66015625 341.39453125 C17.3889241 341.38194778 16.11769196 341.36936432 14.80793762 341.35639954 C10.66343624 341.31182603 6.51924881 341.25098774 2.375 341.1875 C1.6728965 341.17721519 0.970793 341.16693039 0.24741364 341.15633392 C-21.40780292 340.8346546 -42.80416725 339.88735073 -64.27050781 336.85400391 C-67.196105 336.44388518 -70.11872312 336.0864835 -73.0546875 335.76171875 C-84.44993192 334.41083279 -95.54947973 331.62845504 -106.6875 328.9375 C-107.48913574 328.74427155 -108.29077148 328.55104309 -109.11669922 328.35195923 C-117.61721678 326.28951963 -125.93585856 324.15933035 -134.109375 320.99194336 C-137.24832804 320.24079428 -139.56552423 320.67010214 -142.6875 321.375 C-142.6875 320.385 -142.6875 319.395 -142.6875 318.375 C-143.63625 318.230625 -144.585 318.08625 -145.5625 317.9375 C-148.66190732 317.37960668 -150.0482624 316.88498516 -152.46484375 314.95703125 C-154.97048765 313.17357645 -157.38405087 312.17300759 -160.25 311.0625 C-176.0300198 304.62866804 -190.64034481 295.12259651 -203.91796875 284.50390625 C-207.02514389 282.11545709 -210.18550899 280.1259955 -213.6875 278.375 C-213.95433594 277.79878906 -214.22117187 277.22257812 -214.49609375 276.62890625 C-216.09679561 273.60069322 -218.27548225 271.67564705 -220.75 269.3125 C-230.23160122 260.03472054 -237.93035349 249.76445887 -244.6875 238.375 C-245.07470215 237.72257324 -245.4619043 237.07014648 -245.86083984 236.39794922 C-264.48772504 204.46065039 -267.64452285 167.84670153 -258.8125 132.375 C-257.02286982 126.03984527 -254.63758911 120.24811318 -251.6875 114.375 C-251.29691406 113.54613281 -250.90632813 112.71726562 -250.50390625 111.86328125 C-243.28494683 96.78630698 -233.05644705 84.45769261 -221.6875 72.375 C-221.10355469 71.73691406 -220.51960938 71.09882813 -219.91796875 70.44140625 C-211.49484493 61.54914642 -200.89797357 54.06026193 -190.6875 47.375 C-190.0908252 46.98376953 -189.49415039 46.59253906 -188.87939453 46.18945312 C-174.76542667 37.02588112 -159.69150828 28.70117473 -143.6875 23.375 C-143.0275 22.715 -142.3675 22.055 -141.6875 21.375 C-139.35723947 21.02082289 -137.02333504 20.6903256 -134.6875 20.375 C-132.60880589 19.71570252 -130.54666848 19.00285491 -128.5 18.25 C-110.03672995 11.89142762 -91.06916155 8.0254055 -71.8125 5.0625 C-71.02190186 4.93948517 -70.23130371 4.81647034 -69.41674805 4.68972778 C-46.27385235 1.1286114 -23.40853815 -0.03794096 0 0 Z " fill="#544287" transform="translate(510.6875,349.625)"/>
<path d="M0 0 C17.49529151 9.79827684 26.58953397 28.87023825 31.96728516 47.45947266 C38.88286452 72.85766946 39.73187022 101.94048131 33.875 127.625 C33.70339355 128.4072998 33.53178711 129.18959961 33.35498047 129.99560547 C28.79102068 150.3600838 21.01839164 171.4955194 3.60546875 184.29296875 C-4.00013682 188.79578996 -13.01004526 189.1462326 -21.51171875 187.03125 C-23.63262201 186.10201044 -25.28182471 185.02841355 -27.125 183.625 C-27.91132813 183.03847656 -28.69765625 182.45195313 -29.5078125 181.84765625 C-49.96498035 165.05025696 -57.91615172 135.35781748 -60.66064453 110.06884766 C-63.77374971 75.36951077 -59.05238217 37.61033408 -36.265625 9.953125 C-26.36569304 -0.81395429 -14.06554637 -6.39013883 0 0 Z " fill="#79DCF6" transform="translate(394.125,427.375)"/>
<path d="M0 0 C18.07420629 11.14163401 27.20374111 33.16746948 32 53 C35.09063692 66.12960794 35.29776981 79.39149746 35.375 92.8125 C35.3830365 93.59365173 35.391073 94.37480347 35.39935303 95.17962646 C35.48486876 106.14205191 34.39478993 116.30689784 32 127 C31.81195801 127.89904053 31.62391602 128.79808105 31.43017578 129.72436523 C27.25271711 149.14241581 18.96731065 170.79142695 2.171875 182.6640625 C-4.8699073 186.99551852 -11.7503363 188.24407784 -20 187 C-34.96894965 181.83323892 -43.00199232 170.08447568 -49.765625 156.4375 C-66.2013331 119.24963522 -67.63278868 71.99914961 -53 34 C-47.23290977 19.99663544 -38.4175686 4.94742518 -24.0625 -1.5 C-15.89300779 -4.34541137 -7.75950692 -3.82510904 0 0 Z " fill="#79DCF6" transform="translate(655,428)"/>
<path d="M0 0 C3.74807913 1.24935971 4.07830791 2.34801209 6.0625 5.6875 C13.41915063 17.60928393 21.79359037 28.46034507 31 39 C31.7425 39.85464844 32.485 40.70929687 33.25 41.58984375 C34.82701729 43.39896237 36.40926009 45.20295253 38 47 C37.34 47.66 36.68 48.32 36 49 C0 7.08123791 0 7.08123791 0 0 Z " fill="#39266E" transform="translate(228,689)"/>
<path d="M0 0 C1.06347656 0.00676758 1.06347656 0.00676758 2.1484375 0.01367188 C3.8489974 0.02516214 5.54951219 0.04307818 7.25 0.0625 C7.25 0.3925 7.25 0.7225 7.25 1.0625 C5.99703125 1.19527344 4.7440625 1.32804688 3.453125 1.46484375 C1.80206754 1.64308291 0.15102673 1.8214764 -1.5 2 C-2.325 2.08701172 -3.15 2.17402344 -4 2.26367188 C-4.79921875 2.35068359 -5.5984375 2.43769531 -6.421875 2.52734375 C-7.1550293 2.605896 -7.88818359 2.68444824 -8.64355469 2.76538086 C-10.72484835 3.01140853 -10.72484835 3.01140853 -12.59509277 3.57971191 C-14.93276905 4.1034478 -16.94180724 4.14472959 -19.33496094 4.08422852 C-20.23559265 4.06413223 -21.13622437 4.04403595 -22.06414795 4.02333069 C-23.50966034 3.98277809 -23.50966034 3.98277809 -24.984375 3.94140625 C-25.97753723 3.91779526 -26.97069946 3.89418427 -27.99395752 3.86985779 C-31.16278838 3.79334932 -34.33136696 3.7092696 -37.5 3.625 C-39.64972728 3.5717665 -41.79946684 3.51902619 -43.94921875 3.46679688 C-49.21630158 3.33775153 -54.48319735 3.20249115 -59.75 3.0625 C-59.75 2.7325 -59.75 2.4025 -59.75 2.0625 C-58.63141602 2.03744385 -57.51283203 2.0123877 -56.36035156 1.98657227 C-52.15567227 1.89142118 -47.95111751 1.79147697 -43.74658203 1.69018555 C-41.93704164 1.64723912 -40.12747111 1.60554164 -38.31787109 1.56518555 C-29.27006381 1.3626227 -20.27732391 1.12115698 -11.26269531 0.26977539 C-7.50435727 -0.04025463 -3.76833551 -0.04765405 0 0 Z " fill="#36226B" transform="translate(556.75,686.9375)"/>
<path d="M0 0 C0.66 0 1.32 0 2 0 C3.48046875 1.50390625 3.48046875 1.50390625 5.1875 3.5625 C14.27412238 14.19776644 24.85838516 22.67212759 36.31665039 30.63793945 C39.10023937 32.58284493 41.71720576 34.47262066 44 37 C34.62359432 33.61834549 26.61776369 26.90915804 19.05859375 20.56640625 C16.9895758 18.81718635 16.9895758 18.81718635 14 18 C13.72285156 17.43410156 13.44570313 16.86820313 13.16015625 16.28515625 C11.53142072 13.0770408 9.01574669 10.8836982 6.4375 8.4375 C1.13475836 3.40427509 1.13475836 3.40427509 0 0 Z " fill="#3F2B73" transform="translate(283,610)"/>
<path d="M0 0 C2.92016891 3.524031 4.78419175 7.46530121 6.75 11.5625 C11.54271877 21.82127425 11.54271877 21.82127425 18 31 C19.32 31 20.64 31 22 31 C21.9071875 32.1446875 21.9071875 32.1446875 21.8125 33.3125 C21.74101915 36.04525312 21.74101915 36.04525312 23.5 37.8125 C23.995 38.204375 24.49 38.59625 25 39 C24.67 39.66 24.34 40.32 24 41 C15.20127544 31.94386594 9.17342687 21.55089109 3.5 10.375 C3.149375 9.68784912 2.79875 9.00069824 2.4375 8.29272461 C0.97820559 5.3450823 0 3.33318331 0 0 Z " fill="#36236D" transform="translate(258,569)"/>
<path d="M0 0 C0.495 0.99 0.495 0.99 1 2 C0.18015625 2.33773437 -0.6396875 2.67546875 -1.484375 3.0234375 C-2.56203125 3.46945312 -3.6396875 3.91546875 -4.75 4.375 C-6.35101562 5.03628906 -6.35101562 5.03628906 -7.984375 5.7109375 C-10.87521298 6.89565543 -10.87521298 6.89565543 -13.05859375 8.09765625 C-15.45566383 9.21178741 -17.70805893 9.62412873 -20.3125 10.0625 C-21.27414062 10.22621094 -22.23578125 10.38992188 -23.2265625 10.55859375 C-26.48064226 11.07649658 -29.73387211 11.56451628 -33 12 C-30.37669392 9.37669392 -27.47984678 8.69596335 -24.0234375 7.6171875 C-23.33819 7.39805695 -22.6529425 7.17892639 -21.94692993 6.95315552 C-19.75807718 6.25465714 -17.56662564 5.56474289 -15.375 4.875 C-13.89044589 4.40290662 -12.4060685 3.93025711 -10.921875 3.45703125 C-7.28326916 2.29822471 -3.64230955 1.14710946 0 0 Z " fill="#433178" transform="translate(632,823)"/>
<path d="M0 0 C4.3091491 2.2840845 7.43803604 5.23926312 10.6875 8.8125 C11.4604541 9.65397583 11.4604541 9.65397583 12.24902344 10.51245117 C17.72953905 16.60611839 22.40846304 23.2244355 27 30 C26.67 30.66 26.34 31.32 26 32 C25.41734375 31.22398437 24.8346875 30.44796875 24.234375 29.6484375 C19.52242345 23.42102571 14.68799955 17.32159185 9.625 11.375 C8.87621582 10.48820557 8.87621582 10.48820557 8.11230469 9.58349609 C5.59919456 6.65944247 3.08151965 4.29288429 0 2 C0 1.34 0 0.68 0 0 Z " fill="#3C2A71" transform="translate(730,419)"/>
<path d="M0 0 C4.89999805 4.10101748 9.46937512 8.37393702 13.9375 12.9375 C18.35473272 17.4116876 22.79491398 21.75357489 27.64453125 25.765625 C29 27 29 27 30 29 C20.93630501 25.17026972 13.18682133 15.28732255 6.25 8.4375 C5.62947754 7.8300293 5.00895508 7.22255859 4.36962891 6.59667969 C2.87328681 5.10329562 1.43110655 3.55601083 0 2 C0 1.34 0 0.68 0 0 Z " fill="#2F1B66" transform="translate(266,738)"/>
<path d="M0 0 C2.64 0 5.28 0 8 0 C4.43419006 3.56580994 -0.9305359 3.96167938 -5.72924805 5.14160156 C-7.66542434 5.61955058 -9.59741024 6.11437202 -11.52929688 6.609375 C-12.76099609 6.91617188 -13.99269531 7.22296875 -15.26171875 7.5390625 C-16.38537842 7.81959473 -17.50903809 8.10012695 -18.66674805 8.38916016 C-22.18051551 9.03308063 -25.43563869 9.10570701 -29 9 C-29 8.67 -29 8.34 -29 8 C-25.29219569 7.18507328 -21.58366684 6.3734916 -17.875 5.5625 C-16.82828125 5.33240234 -15.7815625 5.10230469 -14.703125 4.86523438 C-9.81614749 3.79814118 -4.94897989 2.74491566 0 2 C0 1.34 0 0.68 0 0 Z " fill="#37236D" transform="translate(629,673)"/>
<path d="M0 0 C4.47997691 -0.02504287 8.95991485 -0.04301921 13.43994141 -0.05493164 C14.95850333 -0.05990685 16.4770606 -0.06668941 17.99560547 -0.07543945 C27.05422701 -0.1262634 35.9789916 0.03221644 45 1 C45 1.33 45 1.66 45 2 C42.75067773 2.1954625 40.50049858 2.38108226 38.25 2.5625 C36.37054687 2.71912109 36.37054687 2.71912109 34.453125 2.87890625 C31 3 31 3 29.17773438 2.52734375 C26.33665685 1.83936982 23.62418275 1.78004377 20.703125 1.68359375 C19.49785156 1.64169922 18.29257812 1.59980469 17.05078125 1.55664062 C15.79652344 1.51732422 14.54226563 1.47800781 13.25 1.4375 C11.34541016 1.37272461 11.34541016 1.37272461 9.40234375 1.30664062 C6.26833635 1.20060278 3.13425067 1.09853942 0 1 C0 0.67 0 0.34 0 0 Z " fill="#A89BC7" transform="translate(498,179)"/>
<path d="M0 0 C1.11412769 3.34238307 0.90543039 4.0510577 -0.14453125 7.2734375 C-0.40943359 8.0984375 -0.67433594 8.9234375 -0.94726562 9.7734375 C-1.23279297 10.63195312 -1.51832031 11.49046875 -1.8125 12.375 C-2.08642578 13.22578125 -2.36035156 14.0765625 -2.64257812 14.953125 C-3.96559433 19.02687274 -5.33413554 23.0506823 -7 27 C-8.17658961 23.47023118 -7.79790695 21.51987603 -7.1875 17.875 C-7.01605469 16.79992187 -6.84460938 15.72484375 -6.66796875 14.6171875 C-6.44753906 13.75351562 -6.22710937 12.88984375 -6 12 C-5.34 11.67 -4.68 11.34 -4 11 C-3.21984379 9.17489003 -2.52204594 7.31393324 -1.875 5.4375 C-1.52179688 4.42558594 -1.16859375 3.41367187 -0.8046875 2.37109375 C-0.40636719 1.19740234 -0.40636719 1.19740234 0 0 Z " fill="#3C2A73" transform="translate(198,394)"/>
<path d="M0 0 C8.39001357 1.29523251 16.08853669 4.0132516 24 7 C24 7.33 24 7.66 24 8 C17.94683675 8.63717508 13.42623122 6.32196091 8 4 C5.34193778 2.97535988 2.671452 1.98942667 0 1 C0 0.67 0 0.34 0 0 Z " fill="#463278" transform="translate(606,191)"/>
<path d="M0 0 C3.00646914 0.98127812 6.00393493 1.98744097 9 3 C9.7734375 3.25136719 10.546875 3.50273437 11.34375 3.76171875 C13.26209167 4.41854226 15.13627578 5.20126105 17 6 C17.33 6.99 17.66 7.98 18 9 C13.49272353 8.39733215 10.1412037 6.63400206 6.1875 4.4375 C5.59001953 4.10814453 4.99253906 3.77878906 4.37695312 3.43945312 C2.91466002 2.63226733 1.4568601 1.81695083 0 1 C0 0.67 0 0.34 0 0 Z " fill="#422E76" transform="translate(650,207)"/>
<path d="M0 0 C-3.01944481 2.53633364 -5.63377743 3.69040767 -9.4375 4.6875 C-10.82775391 5.06455078 -10.82775391 5.06455078 -12.24609375 5.44921875 C-14.91449402 5.9828988 -17.28788525 6.10336553 -20 6 C-17.42501192 3.42501192 -15.16172058 2.93733245 -11.6875 1.875 C-10.55699219 1.52179687 -9.42648437 1.16859375 -8.26171875 0.8046875 C-5.33613198 0.08292597 -2.98951921 -0.16826562 0 0 Z " fill="#3B276E" transform="translate(619,829)"/>
<path d="M0 0 C0.33 0.66 0.66 1.32 1 2 C-0.24493748 4.28974316 -1.52641528 6.44190034 -2.9375 8.625 C-3.32357422 9.23601563 -3.70964844 9.84703125 -4.10742188 10.4765625 C-5.06446326 11.9889242 -6.03132811 13.49506117 -7 15 C-7.61328125 13.203125 -7.61328125 13.203125 -8 11 C-6.1875 7.75 -6.1875 7.75 -4 5 C-3.34 5 -2.68 5 -2 5 C-2 3.68 -2 2.36 -2 1 C-1.34 0.67 -0.68 0.34 0 0 Z " fill="#64508B" transform="translate(889,827)"/>
<path d="M0 0 C0 3.90838866 -1.50567876 5.11594107 -4 8 C-3.67 8.66 -3.34 9.32 -3 10 C-5.31 11.32 -7.62 12.64 -10 14 C-8.62815653 9.93501119 -6.77931541 7.32603439 -3.875 4.1875 C-3.15054687 3.39730469 -2.42609375 2.60710937 -1.6796875 1.79296875 C-1.12539063 1.20128906 -0.57109375 0.60960937 0 0 Z " fill="#3B2A6F" transform="translate(281,431)"/>
<path d="M0 0 C3.89917968 1.61537444 6.71293772 4.27924873 9.75 7.125 C10.25660156 7.59292969 10.76320313 8.06085937 11.28515625 8.54296875 C12.52719141 9.69126541 13.76411494 10.84508672 15 12 C10.6811346 12 8.78127223 9.38440717 5.8125 6.5625 C5.25369141 6.04623047 4.69488281 5.52996094 4.11914062 4.99804688 C2.72081232 3.69191604 1.357217 2.34880015 0 1 C0 0.67 0 0.34 0 0 Z " fill="#35216C" transform="translate(281,754)"/>
<path d="M0 0 C7.3620694 0.4859793 14.69100518 0.97674072 22 2 C22 2.33 22 2.66 22 3 C15.73 3 9.46 3 3 3 C3 2.34 3 1.68 3 1 C2.01 0.67 1.02 0.34 0 0 Z " fill="#B3A0C9" transform="translate(438,685)"/>
<path d="M0 0 C0.61875 0.33 1.2375 0.66 1.875 1 C3.91018344 2.14193235 3.91018344 2.14193235 6 2 C5.938125 2.763125 5.87625 3.52625 5.8125 4.3125 C5.74101915 7.04525312 5.74101915 7.04525312 7.5 8.8125 C7.995 9.204375 8.49 9.59625 9 10 C8.67 10.66 8.34 11.32 8 12 C6.65772954 10.57084149 5.32642904 9.13137328 4 7.6875 C3.2575 6.88699219 2.515 6.08648438 1.75 5.26171875 C0 3 0 3 0 0 Z " fill="#432F78" transform="translate(274,598)"/>
<path d="M0 0 C3.57410797 2.68058098 6.31941902 5.42589203 9 9 C8.67 9.66 8.34 10.32 8 11 C3.48709197 7.66437233 1.31793186 5.66710699 0 0 Z " fill="#6D5395" transform="translate(867,164)"/>
<path d="M0 0 C-0.66 0 -1.32 0 -2 0 C-2.33 0.99 -2.66 1.98 -3 3 C-6.4375 4.625 -6.4375 4.625 -10 6 C-10.99 6.495 -10.99 6.495 -12 7 C-10.95724749 3.7558811 -9.38759509 2.39805336 -6.5625 0.6875 C-3 -1 -3 -1 0 0 Z " fill="#3B2A71" transform="translate(328,395)"/>
<path d="M0 0 C-1.59915881 0.69906942 -3.20455045 1.38389468 -4.8125 2.0625 C-5.70582031 2.44535156 -6.59914063 2.82820312 -7.51953125 3.22265625 C-10 4 -10 4 -13 3 C-12.34 3 -11.68 3 -11 3 C-11 2.34 -11 1.68 -11 1 C-9.5437328 0.63743142 -8.08488815 0.28520207 -6.625 -0.0625 C-5.40683594 -0.35833984 -5.40683594 -0.35833984 -4.1640625 -0.66015625 C-2 -1 -2 -1 0 0 Z " fill="#725F99" transform="translate(816,896)"/>
<path d="M0 0 C-1.45264038 0.8638129 -2.9123163 1.71580454 -4.375 2.5625 C-5.59316406 3.27599609 -5.59316406 3.27599609 -6.8359375 4.00390625 C-7.55007813 4.33261719 -8.26421875 4.66132812 -9 5 C-9.66 4.67 -10.32 4.34 -11 4 C-8.32997607 0.73663741 -4.08378642 -2.04189321 0 0 Z " fill="#6D5B93" transform="translate(834,887)"/>
<path d="M0 0 C0.66 0 1.32 0 2 0 C1.44894091 3.9492568 0.61064629 7.34920174 -1 11 C-2.1875 9.4375 -2.1875 9.4375 -3 7 C-1.625 3.25 -1.625 3.25 0 0 Z " fill="#62518B" transform="translate(899,801)"/>
<path d="M0 0 C0.66 0.33 1.32 0.66 2 1 C-0.97 4.3 -3.94 7.6 -7 11 C-7 7.22089522 -6.00296038 6.53893899 -3.5 3.8125 C-2.8503125 3.09707031 -2.200625 2.38164063 -1.53125 1.64453125 C-1.0259375 1.10183594 -0.520625 0.55914063 0 0 Z " fill="#34236A" transform="translate(772,721)"/>
<path d="M0 0 C0 0.66 0 1.32 0 2 C0.66 2.33 1.32 2.66 2 3 C0.53984709 2.71758359 -0.91809793 2.42373386 -2.375 2.125 C-3.18710938 1.96257813 -3.99921875 1.80015625 -4.8359375 1.6328125 C-7 1 -7 1 -9 -1 C-5.23375329 -2.25541557 -3.62811066 -1.37061958 0 0 Z " fill="#6E5C99" transform="translate(218,896)"/>
<path d="M0 0 C2.52394612 3.12488567 4.39701907 6.31314387 6 10 C5.67 10.66 5.34 11.32 5 12 C4.34 10.35 3.68 8.7 3 7 C2.34 7 1.68 7 1 7 C0.67 4.69 0.34 2.38 0 0 Z " fill="#422F70" transform="translate(128,811)"/>
<path d="M0 0 C0.66 0.33 1.32 0.66 2 1 C0.88121617 2.17262904 -0.24523051 3.33795138 -1.375 4.5 C-2.00148438 5.1496875 -2.62796875 5.799375 -3.2734375 6.46875 C-5 8 -5 8 -7 8 C-6.8125 6.1875 -6.8125 6.1875 -6 4 C-3.5 2.3125 -3.5 2.3125 -1 1 C-0.67 0.67 -0.34 0.34 0 0 Z " fill="#412D76" transform="translate(291,259)"/>
<path d="M0 0 C-6.76923077 3.53846154 -6.76923077 3.53846154 -10 4 C-10.66 3.67 -11.32 3.34 -12 3 C-10.5682384 2.30062798 -9.12932968 1.61587282 -7.6875 0.9375 C-6.48673828 0.36322266 -6.48673828 0.36322266 -5.26171875 -0.22265625 C-3 -1 -3 -1 0 0 Z " fill="#3A276D" transform="translate(221,126)"/>
<path d="M0 0 C2.3129482 2.3129482 2.49580975 3.47904875 3.125 6.625 C3.29257812 7.44226563 3.46015625 8.25953125 3.6328125 9.1015625 C3.81457031 10.04128906 3.81457031 10.04128906 4 11 C3.67 10.34 3.34 9.68 3 9 C2.34 9 1.68 9 1 9 C0.45627049 5.94152152 0 3.11227195 0 0 Z " fill="#75679E" transform="translate(896,209)"/>
<path d="M0 0 C0.66 0.33 1.32 0.66 2 1 C0.68 2.65 -0.64 4.3 -2 6 C-3.32 5.67 -4.64 5.34 -6 5 C-4.02 3.35 -2.04 1.7 0 0 Z " fill="#726198" transform="translate(180,143)"/>
<path d="M0 0 C0.99 0.33 1.98 0.66 3 1 C3.8125 2.875 3.8125 2.875 4 5 C3.01 6.485 3.01 6.485 2 8 C1.87625 7.195625 1.7525 6.39125 1.625 5.5625 C1.315625 4.2940625 1.315625 4.2940625 1 3 C0.34 2.67 -0.32 2.34 -1 2 C-0.67 1.34 -0.34 0.68 0 0 Z " fill="#64559C" transform="translate(123,801)"/>
<path d="M0 0 C0.66 0 1.32 0 2 0 C2 2.64 2 5.28 2 8 C1.01 7.67 0.02 7.34 -1 7 C-1.04254356 5.00045254 -1.04080783 2.99958364 -1 1 C-0.67 0.67 -0.34 0.34 0 0 Z " fill="#564C8F" transform="translate(690,495)"/>
<path d="M0 0 C1.32 0.33 2.64 0.66 4 1 C3.01 1 2.02 1 1 1 C0.67 1.66 0.34 2.32 0 3 C0 2.01 0 1.02 0 0 Z " fill="#4242BC" transform="translate(804,120)"/>
<path d="M0 0 C0.99 0.495 0.99 0.495 2 1 C1.01 2.485 1.01 2.485 0 4 C0 2.68 0 1.36 0 0 Z " fill="#3232CB" transform="translate(908,314)"/>
<path d="M0 0 C4 1 4 1 4 1 Z " fill="#3535C9" transform="translate(417,908)"/>
<path d="M0 0 C1 4 1 4 1 4 Z " fill="#3F3FBF" transform="translate(114,540)"/>
<path d="M0 0 C1 4 1 4 1 4 Z " fill="#2525C9" transform="translate(114,284)"/>
<path d="M0 0 C0.99 0.33 1.98 0.66 3 1 C2.01 1 1.02 1 0 1 C0 0.67 0 0.34 0 0 Z " fill="#190CE5" transform="translate(219,120)"/>
<path d="M0 0 C3 1 3 1 3 1 Z " fill="#71718D" transform="translate(606,908)"/>
<path d="M0 0 C0.99 0.495 0.99 0.495 2 1 C1.01 1.495 1.01 1.495 0 2 C0 1.34 0 0.68 0 0 Z " fill="#0000FF" transform="translate(223,902)"/>
<path d="" fill="#2A2AD4" transform="translate(0,0)"/>
<path d="" fill="#543FA9" transform="translate(0,0)"/>
<path d="" fill="#5454A9" transform="translate(0,0)"/>
<path d="" fill="#4631B8" transform="translate(0,0)"/>
<path d="" fill="#2A2AD4" transform="translate(0,0)"/>
<path d="" fill="#1C1CE2" transform="translate(0,0)"/>
<path d="" fill="#2A2AD4" transform="translate(0,0)"/>
<path d="" fill="#4C4CB2" transform="translate(0,0)"/>
<path d="" fill="#0000FF" transform="translate(0,0)"/>
<path d="" fill="#7F7F7F" transform="translate(0,0)"/>
<path d="M0 0 C0.66 0.66 1.32 1.32 2 2 C1.34 2 0.68 2 0 2 C0 1.34 0 0.68 0 0 Z " fill="#1C1CE2" transform="translate(877,172)"/>
<path d="M0 0 C3 1 3 1 3 1 Z " fill="#63638D" transform="translate(797,120)"/>
<path d="M0 0 C2 1 2 1 2 1 Z " fill="#3F3FBF" transform="translate(718,908)"/>
<path d="M0 0 C2 1 2 1 2 1 Z " fill="#0000FF" transform="translate(662,908)"/>
<path d="M0 0 C2 1 2 1 2 1 Z " fill="#0000FF" transform="translate(627,908)"/>
<path d="M0 0 C2 1 2 1 2 1 Z " fill="#0000FF" transform="translate(590,908)"/>
<path d="M0 0 C2 1 2 1 2 1 Z " fill="#0000FF" transform="translate(538,908)"/>
<path d="M0 0 C2 1 2 1 2 1 Z " fill="#2A2AD4" transform="translate(498,908)"/>
<path d="M0 0 C2 1 2 1 2 1 Z " fill="#0000FF" transform="translate(449,908)"/>
<path d="M0 0 C2 1 2 1 2 1 Z " fill="#0000FF" transform="translate(430,908)"/>
<path d="M0 0 C2 1 2 1 2 1 Z " fill="#7F7F7F" transform="translate(346,908)"/>
<path d="M0 0 C2 1 2 1 2 1 Z " fill="#3F1FBF" transform="translate(287,908)"/>
<path d="M0 0 C2 1 2 1 2 1 Z " fill="#0000FF" transform="translate(782,906)"/>
<path d="M0 0 C2 1 2 1 2 1 Z " fill="#7F7F7F" transform="translate(796,903)"/>
<path d="M0 0 C2 1 2 1 2 1 Z " fill="#3F3FBF" transform="translate(228,903)"/>
<path d="" fill="#7F5F7F" transform="translate(0,0)"/>
<path d="M0 0 C2 1 2 1 2 1 Z " fill="#2A2AD4" transform="translate(189,887)"/>
<path d="" fill="#3F3FBF" transform="translate(0,0)"/>
<path d="M0 0 C2 1 2 1 2 1 Z " fill="#3F3FBF" transform="translate(161,871)"/>
<path d="" fill="#2424C8" transform="translate(0,0)"/>
<path d="" fill="#3319CC" transform="translate(0,0)"/>
<path d="" fill="#3F3FBF" transform="translate(0,0)"/>
<path d="" fill="#7F7F7F" transform="translate(0,0)"/>
<path d="" fill="#3F3FBF" transform="translate(0,0)"/>
<path d="" fill="#3F3FBF" transform="translate(0,0)"/>
<path d="" fill="#2A2AD4" transform="translate(0,0)"/>
<path d="" fill="#3F3FBF" transform="translate(0,0)"/>
<path d="" fill="#3F3FBF" transform="translate(0,0)"/>
<path d="" fill="#6A6A94" transform="translate(0,0)"/>
<path d="" fill="#2A2AD4" transform="translate(0,0)"/>
<path d="" fill="#3F3FBF" transform="translate(0,0)"/>
<path d="" fill="#6A6A94" transform="translate(0,0)"/>
<path d="" fill="#3F3FBF" transform="translate(0,0)"/>
<path d="" fill="#0000FF" transform="translate(0,0)"/>
<path d="" fill="#7F5F7F" transform="translate(0,0)"/>
<path d="" fill="#0000FF" transform="translate(0,0)"/>
<path d="" fill="#0000FF" transform="translate(0,0)"/>
<path d="" fill="#3F3FBF" transform="translate(0,0)"/>
<path d="" fill="#3F3FBF" transform="translate(0,0)"/>
<path d="M0 0 C2 1 2 1 2 1 Z " fill="#0000FF" transform="translate(113,424)"/>
<path d="" fill="#2A2AD4" transform="translate(0,0)"/>
<path d="" fill="#0000FF" transform="translate(0,0)"/>
<path d="" fill="#5F5F7F" transform="translate(0,0)"/>
<path d="" fill="#3F1FBF" transform="translate(0,0)"/>
<path d="" fill="#7F7F7F" transform="translate(0,0)"/>
<path d="" fill="#2A2AD4" transform="translate(0,0)"/>
<path d="" fill="#3333CC" transform="translate(0,0)"/>
<path d="M0 0 C2 1 2 1 2 1 Z " fill="#0000FF" transform="translate(144,174)"/>
<path d="" fill="#5555AA" transform="translate(0,0)"/>
<path d="" fill="#3F3FBF" transform="translate(0,0)"/>
<path d="" fill="#2A2AD4" transform="translate(0,0)"/>
<path d="M0 0 C2 1 2 1 2 1 Z " fill="#3F3FBF" transform="translate(183,139)"/>
<path d="M0 0 C2 1 2 1 2 1 Z " fill="#3F3FBF" transform="translate(834,136)"/>
<path d="" fill="#2A2AD4" transform="translate(0,0)"/>
<path d="" fill="#7F7F7F" transform="translate(0,0)"/>
<path d="M0 0 C2 1 2 1 2 1 Z " fill="#3F3FBF" transform="translate(766,114)"/>
<path d="M0 0 C2 1 2 1 2 1 Z " fill="#3F3FBF" transform="translate(694,114)"/>
<path d="M0 0 C2 1 2 1 2 1 Z " fill="#3F3FBF" transform="translate(655,114)"/>
<path d="M0 0 C2 1 2 1 2 1 Z " fill="#0000FF" transform="translate(622,114)"/>
<path d="M0 0 C2 1 2 1 2 1 Z " fill="#3F3FBF" transform="translate(616,114)"/>
<path d="M0 0 C2 1 2 1 2 1 Z " fill="#0000FF" transform="translate(534,114)"/>
<path d="M0 0 C2 1 2 1 2 1 Z " fill="#3F3FBF" transform="translate(341,114)"/>
<path d="M0 0 C2 1 2 1 2 1 Z " fill="#6A6A94" transform="translate(773,112)"/>
<path d="" fill="#000000" transform="translate(0,0)"/>
<path d="" fill="#0000FF" transform="translate(0,0)"/>
<path d="" fill="#7F7F7F" transform="translate(0,0)"/>
<path d="" fill="#0000FF" transform="translate(0,0)"/>
<path d="" fill="#0000FF" transform="translate(0,0)"/>
<path d="" fill="#0000FF" transform="translate(0,0)"/>
<path d="" fill="#0000FF" transform="translate(0,0)"/>
<path d="" fill="#0000FF" transform="translate(0,0)"/>
<path d="" fill="#7F7F7F" transform="translate(0,0)"/>
<path d="" fill="#0000FF" transform="translate(0,0)"/>
<path d="" fill="#7F7F7F" transform="translate(0,0)"/>
<path d="" fill="#0000FF" transform="translate(0,0)"/>
<path d="" fill="#0000FF" transform="translate(0,0)"/>
<path d="" fill="#0000FF" transform="translate(0,0)"/>
<path d="" fill="#7F7F7F" transform="translate(0,0)"/>
<path d="" fill="#0000FF" transform="translate(0,0)"/>
<path d="" fill="#0000FF" transform="translate(0,0)"/>
<path d="" fill="#0000FF" transform="translate(0,0)"/>
<path d="" fill="#7F7F7F" transform="translate(0,0)"/>
<path d="" fill="#7F7F7F" transform="translate(0,0)"/>
<path d="" fill="#0000FF" transform="translate(0,0)"/>
<path d="" fill="#0000FF" transform="translate(0,0)"/>
<path d="" fill="#0000FF" transform="translate(0,0)"/>
<path d="" fill="#663399" transform="translate(0,0)"/>
<path d="" fill="#0000FF" transform="translate(0,0)"/>
<path d="" fill="#0000FF" transform="translate(0,0)"/>
<path d="" fill="#0000FF" transform="translate(0,0)"/>
<path d="" fill="#7F7F7F" transform="translate(0,0)"/>
<path d="" fill="#7F3F7F" transform="translate(0,0)"/>
<path d="" fill="#7F7F7F" transform="translate(0,0)"/>
<path d="" fill="#0000FF" transform="translate(0,0)"/>
<path d="" fill="#7F7F7F" transform="translate(0,0)"/>
<path d="" fill="#0000FF" transform="translate(0,0)"/>
<path d="" fill="#7F7F7F" transform="translate(0,0)"/>
<path d="" fill="#7F7F7F" transform="translate(0,0)"/>
<path d="" fill="#0000FF" transform="translate(0,0)"/>
<path d="" fill="#0000FF" transform="translate(0,0)"/>
<path d="" fill="#0000FF" transform="translate(0,0)"/>
<path d="" fill="#7F7F7F" transform="translate(0,0)"/>
<path d="" fill="#7F7F7F" transform="translate(0,0)"/>
<path d="" fill="#0000FF" transform="translate(0,0)"/>
<path d="" fill="#7F3F7F" transform="translate(0,0)"/>
<path d="" fill="#7F7F7F" transform="translate(0,0)"/>
<path d="" fill="#7F7F7F" transform="translate(0,0)"/>
<path d="" fill="#0000FF" transform="translate(0,0)"/>
<path d="" fill="#0000FF" transform="translate(0,0)"/>
<path d="" fill="#0000FF" transform="translate(0,0)"/>
<path d="" fill="#0000FF" transform="translate(0,0)"/>
<path d="" fill="#0000FF" transform="translate(0,0)"/>
<path d="" fill="#7F7F7F" transform="translate(0,0)"/>
<path d="" fill="#0000FF" transform="translate(0,0)"/>
<path d="" fill="#0000FF" transform="translate(0,0)"/>
<path d="" fill="#7F7F7F" transform="translate(0,0)"/>
<path d="" fill="#7F7F7F" transform="translate(0,0)"/>
<path d="" fill="#0000FF" transform="translate(0,0)"/>
<path d="" fill="#0000FF" transform="translate(0,0)"/>
<path d="" fill="#0000FF" transform="translate(0,0)"/>
<path d="" fill="#7F7F7F" transform="translate(0,0)"/>
<path d="" fill="#0000FF" transform="translate(0,0)"/>
<path d="" fill="#0000FF" transform="translate(0,0)"/>
<path d="" fill="#0000FF" transform="translate(0,0)"/>
<path d="" fill="#5555AA" transform="translate(0,0)"/>
<path d="" fill="#7F7F7F" transform="translate(0,0)"/>
<path d="" fill="#0000FF" transform="translate(0,0)"/>
<path d="" fill="#0000FF" transform="translate(0,0)"/>
<path d="" fill="#7F3F7F" transform="translate(0,0)"/>
<path d="" fill="#0000FF" transform="translate(0,0)"/>
<path d="" fill="#0000FF" transform="translate(0,0)"/>
<path d="" fill="#0000FF" transform="translate(0,0)"/>
<path d="" fill="#0000FF" transform="translate(0,0)"/>
<path d="" fill="#0000FF" transform="translate(0,0)"/>
<path d="" fill="#0000FF" transform="translate(0,0)"/>
<path d="" fill="#0000FF" transform="translate(0,0)"/>
<path d="" fill="#5555AA" transform="translate(0,0)"/>
<path d="" fill="#0000FF" transform="translate(0,0)"/>
<path d="" fill="#55557F" transform="translate(0,0)"/>
<path d="" fill="#7F7F7F" transform="translate(0,0)"/>
<path d="" fill="#7F7F7F" transform="translate(0,0)"/>
<path d="" fill="#0000FF" transform="translate(0,0)"/>
<path d="" fill="#0000FF" transform="translate(0,0)"/>
<path d="" fill="#5555AA" transform="translate(0,0)"/>
<path d="" fill="#5555AA" transform="translate(0,0)"/>
<path d="" fill="#0000FF" transform="translate(0,0)"/>
<path d="" fill="#0000FF" transform="translate(0,0)"/>
<path d="" fill="#7F7F7F" transform="translate(0,0)"/>
<path d="" fill="#0000FF" transform="translate(0,0)"/>
<path d="" fill="#0000FF" transform="translate(0,0)"/>
<path d="" fill="#7F7F7F" transform="translate(0,0)"/>
<path d="" fill="#3F3F7F" transform="translate(0,0)"/>
<path d="" fill="#000000" transform="translate(0,0)"/>
<path d="" fill="#5555AA" transform="translate(0,0)"/>
<path d="" fill="#0000FF" transform="translate(0,0)"/>
<path d="" fill="#7F7F7F" transform="translate(0,0)"/>
<path d="" fill="#7F7F7F" transform="translate(0,0)"/>
<path d="" fill="#0000FF" transform="translate(0,0)"/>
<path d="" fill="#55557F" transform="translate(0,0)"/>
<path d="" fill="#663399" transform="translate(0,0)"/>
<path d="" fill="#5555AA" transform="translate(0,0)"/>
<path d="" fill="#7F7F7F" transform="translate(0,0)"/>
<path d="" fill="#0000FF" transform="translate(0,0)"/>
<path d="" fill="#6D4891" transform="translate(0,0)"/>
<path d="" fill="#5555AA" transform="translate(0,0)"/>
<path d="" fill="#3F3F7F" transform="translate(0,0)"/>
<path d="" fill="#3F3F7F" transform="translate(0,0)"/>
<path d="" fill="#0000FF" transform="translate(0,0)"/>
<path d="" fill="#0000FF" transform="translate(0,0)"/>
<path d="" fill="#0000FF" transform="translate(0,0)"/>
<path d="" fill="#7F7F7F" transform="translate(0,0)"/>
<path d="" fill="#0000FF" transform="translate(0,0)"/>
<path d="" fill="#5555AA" transform="translate(0,0)"/>
<path d="" fill="#5555AA" transform="translate(0,0)"/>
<path d="" fill="#7F7F7F" transform="translate(0,0)"/>
<path d="" fill="#0000FF" transform="translate(0,0)"/>
<path d="" fill="#7F3F7F" transform="translate(0,0)"/>
<path d="" fill="#0000FF" transform="translate(0,0)"/>
<path d="" fill="#7F7F7F" transform="translate(0,0)"/>
<path d="" fill="#7F7F7F" transform="translate(0,0)"/>
<path d="" fill="#0000FF" transform="translate(0,0)"/>
<path d="" fill="#7F7F7F" transform="translate(0,0)"/>
<path d="" fill="#0000FF" transform="translate(0,0)"/>
<path d="" fill="#0000FF" transform="translate(0,0)"/>
<path d="" fill="#7F7F7F" transform="translate(0,0)"/>
<path d="" fill="#0000FF" transform="translate(0,0)"/>
<path d="" fill="#7F7F7F" transform="translate(0,0)"/>
<path d="" fill="#0000FF" transform="translate(0,0)"/>
<path d="" fill="#0000FF" transform="translate(0,0)"/>
<path d="" fill="#0000FF" transform="translate(0,0)"/>
<path d="" fill="#0000FF" transform="translate(0,0)"/>
<path d="" fill="#7F7F7F" transform="translate(0,0)"/>
<path d="" fill="#0000FF" transform="translate(0,0)"/>
<path d="" fill="#7F7F7F" transform="translate(0,0)"/>
<path d="" fill="#5555AA" transform="translate(0,0)"/>
<path d="" fill="#0000FF" transform="translate(0,0)"/>
<path d="" fill="#0000FF" transform="translate(0,0)"/>
<path d="" fill="#0000FF" transform="translate(0,0)"/>
<path d="" fill="#7F7F7F" transform="translate(0,0)"/>
<path d="" fill="#0000FF" transform="translate(0,0)"/>
<path d="" fill="#0000FF" transform="translate(0,0)"/>
<path d="" fill="#0000FF" transform="translate(0,0)"/>
<path d="" fill="#7F7F7F" transform="translate(0,0)"/>
<path d="" fill="#0000FF" transform="translate(0,0)"/>
<path d="" fill="#0000FF" transform="translate(0,0)"/>
<path d="" fill="#0000FF" transform="translate(0,0)"/>
<path d="" fill="#5555AA" transform="translate(0,0)"/>
<path d="" fill="#0000FF" transform="translate(0,0)"/>
<path d="" fill="#3F3F7F" transform="translate(0,0)"/>
<path d="" fill="#5555AA" transform="translate(0,0)"/>
<path d="" fill="#5555AA" transform="translate(0,0)"/>
<path d="" fill="#7F3F7F" transform="translate(0,0)"/>
<path d="" fill="#0000FF" transform="translate(0,0)"/>
<path d="" fill="#0000FF" transform="translate(0,0)"/>
<path d="" fill="#5555AA" transform="translate(0,0)"/>
<path d="" fill="#7F7F7F" transform="translate(0,0)"/>
<path d="" fill="#7F7F7F" transform="translate(0,0)"/>
<path d="" fill="#0000FF" transform="translate(0,0)"/>
<path d="" fill="#0000FF" transform="translate(0,0)"/>
<path d="" fill="#0000FF" transform="translate(0,0)"/>
<path d="" fill="#0000FF" transform="translate(0,0)"/>
<path d="" fill="#0000FF" transform="translate(0,0)"/>
<path d="" fill="#7F7F7F" transform="translate(0,0)"/>
<path d="" fill="#0000FF" transform="translate(0,0)"/>
<path d="" fill="#0000FF" transform="translate(0,0)"/>
<path d="" fill="#0000FF" transform="translate(0,0)"/>
<path d="" fill="#7F7F7F" transform="translate(0,0)"/>
<path d="" fill="#0000FF" transform="translate(0,0)"/>
<path d="" fill="#0000FF" transform="translate(0,0)"/>
<path d="" fill="#0000FF" transform="translate(0,0)"/>
<path d="" fill="#7F7F7F" transform="translate(0,0)"/>
<path d="" fill="#0000FF" transform="translate(0,0)"/>
<path d="" fill="#0000FF" transform="translate(0,0)"/>
<path d="" fill="#7F7F7F" transform="translate(0,0)"/>
<path d="" fill="#5555AA" transform="translate(0,0)"/>
<path d="" fill="#0000FF" transform="translate(0,0)"/>
<path d="" fill="#7F7F7F" transform="translate(0,0)"/>
<path d="" fill="#7F7F7F" transform="translate(0,0)"/>
<path d="" fill="#7F7F7F" transform="translate(0,0)"/>
<path d="" fill="#0000FF" transform="translate(0,0)"/>
<path d="" fill="#0000FF" transform="translate(0,0)"/>
<path d="" fill="#0000FF" transform="translate(0,0)"/>
<path d="" fill="#0000FF" transform="translate(0,0)"/>
<path d="" fill="#0000FF" transform="translate(0,0)"/>
<path d="" fill="#7F7F7F" transform="translate(0,0)"/>
<path d="" fill="#0000FF" transform="translate(0,0)"/>
<path d="" fill="#5555AA" transform="translate(0,0)"/>
<path d="" fill="#7F7F7F" transform="translate(0,0)"/>
<path d="" fill="#7F7F7F" transform="translate(0,0)"/>
<path d="" fill="#5555AA" transform="translate(0,0)"/>
<path d="" fill="#0000FF" transform="translate(0,0)"/>
<path d="" fill="#0000FF" transform="translate(0,0)"/>
<path d="" fill="#0000FF" transform="translate(0,0)"/>
<path d="" fill="#0000FF" transform="translate(0,0)"/>
<path d="" fill="#7F7F7F" transform="translate(0,0)"/>
<path d="" fill="#7F7F7F" transform="translate(0,0)"/>
<path d="" fill="#0000FF" transform="translate(0,0)"/>
<path d="" fill="#5555AA" transform="translate(0,0)"/>
<path d="" fill="#0000FF" transform="translate(0,0)"/>
<path d="" fill="#5555AA" transform="translate(0,0)"/>
<path d="" fill="#5555AA" transform="translate(0,0)"/>
<path d="" fill="#0000FF" transform="translate(0,0)"/>
<path d="" fill="#0000FF" transform="translate(0,0)"/>
<path d="" fill="#5555AA" transform="translate(0,0)"/>
<path d="" fill="#0000FF" transform="translate(0,0)"/>
<path d="" fill="#7F7F7F" transform="translate(0,0)"/>
<path d="" fill="#5555AA" transform="translate(0,0)"/>
<path d="" fill="#0000FF" transform="translate(0,0)"/>
<path d="" fill="#0000FF" transform="translate(0,0)"/>
<path d="" fill="#0000FF" transform="translate(0,0)"/>
<path d="" fill="#7F7F7F" transform="translate(0,0)"/>
<path d="" fill="#0000FF" transform="translate(0,0)"/>
<path d="" fill="#7F7F7F" transform="translate(0,0)"/>
<path d="" fill="#7F7F7F" transform="translate(0,0)"/>
<path d="" fill="#0000FF" transform="translate(0,0)"/>
<path d="" fill="#7F7F7F" transform="translate(0,0)"/>
<path d="" fill="#7F7F7F" transform="translate(0,0)"/>
<path d="" fill="#0000FF" transform="translate(0,0)"/>
<path d="" fill="#0000FF" transform="translate(0,0)"/>
<path d="" fill="#7F7F7F" transform="translate(0,0)"/>
<path d="" fill="#5555AA" transform="translate(0,0)"/>
<path d="" fill="#7F7F7F" transform="translate(0,0)"/>
<path d="" fill="#7F7F7F" transform="translate(0,0)"/>
<path d="" fill="#7F7F7F" transform="translate(0,0)"/>
<path d="" fill="#7F7F7F" transform="translate(0,0)"/>
<path d="" fill="#5555AA" transform="translate(0,0)"/>
<path d="" fill="#0000FF" transform="translate(0,0)"/>
<path d="" fill="#7F7F7F" transform="translate(0,0)"/>
<path d="" fill="#7F7F7F" transform="translate(0,0)"/>
<path d="" fill="#5555AA" transform="translate(0,0)"/>
<path d="" fill="#0000FF" transform="translate(0,0)"/>
<path d="" fill="#0000FF" transform="translate(0,0)"/>
<path d="" fill="#0000FF" transform="translate(0,0)"/>
<path d="" fill="#5555AA" transform="translate(0,0)"/>
<path d="" fill="#0000FF" transform="translate(0,0)"/>
<path d="" fill="#0000FF" transform="translate(0,0)"/>
<path d="" fill="#0000FF" transform="translate(0,0)"/>
<path d="" fill="#5555AA" transform="translate(0,0)"/>
<path d="" fill="#0000FF" transform="translate(0,0)"/>
<path d="" fill="#0000FF" transform="translate(0,0)"/>
<path d="" fill="#5555AA" transform="translate(0,0)"/>
<path d="" fill="#0000FF" transform="translate(0,0)"/>
<path d="" fill="#7F7F7F" transform="translate(0,0)"/>
<path d="" fill="#0000FF" transform="translate(0,0)"/>
<path d="" fill="#0000FF" transform="translate(0,0)"/>
<path d="" fill="#0000FF" transform="translate(0,0)"/>
<path d="" fill="#5555AA" transform="translate(0,0)"/>
<path d="" fill="#0000FF" transform="translate(0,0)"/>
<path d="" fill="#0000FF" transform="translate(0,0)"/>
<path d="" fill="#0000FF" transform="translate(0,0)"/>
<path d="" fill="#0000FF" transform="translate(0,0)"/>
<path d="" fill="#7F7F7F" transform="translate(0,0)"/>
<path d="" fill="#0000FF" transform="translate(0,0)"/>
<path d="" fill="#0000FF" transform="translate(0,0)"/>
<path d="" fill="#0000FF" transform="translate(0,0)"/>
<path d="" fill="#0000FF" transform="translate(0,0)"/>
<path d="" fill="#0000FF" transform="translate(0,0)"/>
<path d="" fill="#0000FF" transform="translate(0,0)"/>
<path d="" fill="#0000FF" transform="translate(0,0)"/>
<path d="" fill="#0000FF" transform="translate(0,0)"/>
<path d="" fill="#0000FF" transform="translate(0,0)"/>
<path d="" fill="#0000FF" transform="translate(0,0)"/>
<path d="" fill="#7F7F7F" transform="translate(0,0)"/>
<path d="" fill="#0000FF" transform="translate(0,0)"/>
<path d="" fill="#5555AA" transform="translate(0,0)"/>
<path d="" fill="#7F7F7F" transform="translate(0,0)"/>
<path d="" fill="#0000FF" transform="translate(0,0)"/>
<path d="" fill="#0000FF" transform="translate(0,0)"/>
<path d="" fill="#7F7F7F" transform="translate(0,0)"/>
<path d="" fill="#5555AA" transform="translate(0,0)"/>
<path d="" fill="#0000FF" transform="translate(0,0)"/>
<path d="" fill="#5555AA" transform="translate(0,0)"/>
<path d="" fill="#0000FF" transform="translate(0,0)"/>
<path d="" fill="#0000FF" transform="translate(0,0)"/>
<path d="" fill="#0000FF" transform="translate(0,0)"/>
<path d="" fill="#5555AA" transform="translate(0,0)"/>
<path d="" fill="#0000FF" transform="translate(0,0)"/>
<path d="" fill="#5555AA" transform="translate(0,0)"/>
<path d="" fill="#0000FF" transform="translate(0,0)"/>
<path d="" fill="#5555AA" transform="translate(0,0)"/>
<path d="" fill="#0000FF" transform="translate(0,0)"/>
<path d="" fill="#0000FF" transform="translate(0,0)"/>
<path d="" fill="#0000FF" transform="translate(0,0)"/>
<path d="" fill="#0000FF" transform="translate(0,0)"/>
<path d="" fill="#0000FF" transform="translate(0,0)"/>
<path d="" fill="#0000FF" transform="translate(0,0)"/>
<path d="" fill="#7F7F7F" transform="translate(0,0)"/>
<path d="" fill="#0000FF" transform="translate(0,0)"/>
<path d="" fill="#5555AA" transform="translate(0,0)"/>
<path d="" fill="#0000FF" transform="translate(0,0)"/>
<path d="" fill="#7F7F7F" transform="translate(0,0)"/>
<path d="" fill="#7F7F7F" transform="translate(0,0)"/>
<path d="" fill="#7F7F7F" transform="translate(0,0)"/>
<path d="" fill="#7F7F7F" transform="translate(0,0)"/>
<path d="" fill="#7F7F7F" transform="translate(0,0)"/>
<path d="" fill="#3F3F7F" transform="translate(0,0)"/>
<path d="" fill="#0000FF" transform="translate(0,0)"/>
<path d="" fill="#0000FF" transform="translate(0,0)"/>
<path d="" fill="#0000FF" transform="translate(0,0)"/>
<path d="" fill="#5555AA" transform="translate(0,0)"/>
<path d="" fill="#7F7F7F" transform="translate(0,0)"/>
<path d="" fill="#0000FF" transform="translate(0,0)"/>
<path d="" fill="#7F7F7F" transform="translate(0,0)"/>
<path d="" fill="#7F7F7F" transform="translate(0,0)"/>
<path d="" fill="#7F7F7F" transform="translate(0,0)"/>
<path d="" fill="#0000FF" transform="translate(0,0)"/>
<path d="" fill="#7F7F7F" transform="translate(0,0)"/>
<path d="" fill="#6D4891" transform="translate(0,0)"/>
<path d="" fill="#7F7F7F" transform="translate(0,0)"/>
<path d="" fill="#7F7F7F" transform="translate(0,0)"/>
<path d="" fill="#0000FF" transform="translate(0,0)"/>
<path d="" fill="#0000FF" transform="translate(0,0)"/>
<path d="" fill="#5555AA" transform="translate(0,0)"/>
<path d="" fill="#5555AA" transform="translate(0,0)"/>
<path d="" fill="#5555AA" transform="translate(0,0)"/>
<path d="" fill="#5555AA" transform="translate(0,0)"/>
<path d="" fill="#0000FF" transform="translate(0,0)"/>
<path d="" fill="#0000FF" transform="translate(0,0)"/>
<path d="" fill="#7F7F7F" transform="translate(0,0)"/>
<path d="" fill="#7F7F7F" transform="translate(0,0)"/>
<path d="" fill="#0000FF" transform="translate(0,0)"/>
<path d="" fill="#7F3F7F" transform="translate(0,0)"/>
<path d="" fill="#0000FF" transform="translate(0,0)"/>
<path d="" fill="#7F7F7F" transform="translate(0,0)"/>
<path d="" fill="#0000FF" transform="translate(0,0)"/>
<path d="" fill="#663399" transform="translate(0,0)"/>
<path d="" fill="#0000FF" transform="translate(0,0)"/>
<path d="" fill="#0000FF" transform="translate(0,0)"/>
<path d="" fill="#0000FF" transform="translate(0,0)"/>
<path d="" fill="#0000FF" transform="translate(0,0)"/>
<path d="" fill="#0000FF" transform="translate(0,0)"/>
<path d="" fill="#7F7F7F" transform="translate(0,0)"/>
<path d="" fill="#0000FF" transform="translate(0,0)"/>
<path d="" fill="#0000FF" transform="translate(0,0)"/>
<path d="" fill="#0000FF" transform="translate(0,0)"/>
<path d="" fill="#0000FF" transform="translate(0,0)"/>
<path d="" fill="#0000FF" transform="translate(0,0)"/>
<path d="" fill="#7F7F7F" transform="translate(0,0)"/>
<path d="" fill="#0000FF" transform="translate(0,0)"/>
<path d="" fill="#7F7F7F" transform="translate(0,0)"/>
<path d="" fill="#3F3F7F" transform="translate(0,0)"/>
<path d="" fill="#0000FF" transform="translate(0,0)"/>
<path d="" fill="#7F7F7F" transform="translate(0,0)"/>
<path d="" fill="#0000FF" transform="translate(0,0)"/>
<path d="" fill="#0000FF" transform="translate(0,0)"/>
<path d="" fill="#0000FF" transform="translate(0,0)"/>
<path d="" fill="#7F7F7F" transform="translate(0,0)"/>
<path d="" fill="#0000FF" transform="translate(0,0)"/>
<path d="" fill="#7F7F7F" transform="translate(0,0)"/>
<path d="" fill="#7F7F7F" transform="translate(0,0)"/>
<path d="" fill="#7F7F7F" transform="translate(0,0)"/>
<path d="" fill="#0000FF" transform="translate(0,0)"/>
<path d="" fill="#7F7F7F" transform="translate(0,0)"/>
<path d="" fill="#0000FF" transform="translate(0,0)"/>
<path d="" fill="#0000FF" transform="translate(0,0)"/>
<path d="" fill="#0000FF" transform="translate(0,0)"/>
<path d="" fill="#0000FF" transform="translate(0,0)"/>
<path d="" fill="#0000FF" transform="translate(0,0)"/>
<path d="" fill="#0000FF" transform="translate(0,0)"/>
<path d="" fill="#0000FF" transform="translate(0,0)"/>
<path d="" fill="#0000FF" transform="translate(0,0)"/>
<path d="" fill="#7F7F7F" transform="translate(0,0)"/>
<path d="" fill="#000000" transform="translate(0,0)"/>
</svg>
