<?xml version="1.0" encoding="UTF-8"?>
<svg version="1.1" xmlns="http://www.w3.org/2000/svg" width="1024" height="1024">
<path d="M0 0 C0 0.33 0 0.66 0 1 C1.258125 1.23074219 2.51625 1.46148437 3.8125 1.69921875 C19.54737093 4.66225879 33.91489754 8.77985504 48.4765625 15.44921875 C51.61892653 16.83227698 54.73489112 17.95152662 58 19 C60 20 60 20 62.125 21.75 C64.43794772 23.560133 66.73084536 25.21188473 69.1875 26.8125 C70.19876953 27.47185547 70.19876953 27.47185547 71.23046875 28.14453125 C71.81441406 28.42683594 72.39835938 28.70914063 73 29 C73.66 28.67 74.32 28.34 75 28 C75.33 28.99 75.66 29.98 76 31 C78.19423061 32.87744765 80.38627728 34.63911334 82.6875 36.375 C92.62139396 43.97949506 92.62139396 43.97949506 96 47 C96 47.66 96 48.32 96 49 C97.32 49.33 98.64 49.66 100 50 C100.33 51.32 100.66 52.64 101 54 C101.66 54 102.32 54 103 54 C108.68172471 60.09429808 113.55416152 67.00252642 118.37109375 73.78515625 C119.95528111 76.05574654 119.95528111 76.05574654 122 78 C123.84716342 81.31095329 125.58902792 84.6705111 127.34375 88.03125 C128.82903415 91.01103661 128.82903415 91.01103661 131 93 C132.10096405 94.94287774 132.92297601 96.66337665 133.421875 98.84375 C134.07800149 101.29092447 135.07160214 103.34986843 136.1875 105.625 C138.56747331 110.77464985 140.49731433 116.0069965 142.3125 121.375 C142.71214966 122.53443115 142.71214966 122.53443115 143.11987305 123.71728516 C144.40222603 127.58750647 145.3541617 130.86536805 145 135 C145.66 135.33 146.32 135.66 147 136 C147.31241455 138.71446979 147.51336592 141.33909361 147.625 144.0625 C147.68300781 145.20041992 147.68300781 145.20041992 147.7421875 146.36132812 C147.83673562 148.24047195 147.91946756 150.12020336 148 152 C148.66 152 149.32 152 150 152 C150 306.77 150 461.54 150 621 C149.34 621 148.68 621 148 621 C148.03222656 621.97710938 148.06445312 622.95421875 148.09765625 623.9609375 C148.06169781 644.45724859 138.68914404 666.33804936 129 684 C128.62552734 684.69528809 128.25105469 685.39057617 127.86523438 686.10693359 C120.19798996 700.32355108 120.19798996 700.32355108 115.09375 706.51953125 C113.78383474 708.13287182 113.78383474 708.13287182 113 711 C111.85884124 712.18958432 110.70996961 713.37287369 109.52050781 714.51416016 C107.82534176 716.17067599 106.22184811 717.89242483 104.6171875 719.63671875 C91.78811081 733.54630097 78.8268931 744.64340157 63 755 C62.04867187 755.63164063 61.09734375 756.26328125 60.1171875 756.9140625 C42.62867647 768 42.62867647 768 35 768 C34.67 768.66 34.34 769.32 34 770 C31.77246094 770.54125977 31.77246094 770.54125977 29 771 C27.21103379 771.43646059 25.42468737 771.88375227 23.640625 772.33984375 C22.60550781 772.59830078 21.57039062 772.85675781 20.50390625 773.12304688 C18.37965415 773.65474743 16.25715077 774.19349814 14.13671875 774.74023438 C-1.67893674 778.6504854 -17.27932045 779.29479916 -33.48753357 779.25396729 C-35.50640556 779.25627666 -37.5252767 779.25945636 -39.54414612 779.26342177 C-45.04637895 779.27171298 -50.54854173 779.2676705 -56.05077469 779.26144934 C-62.00248237 779.25690243 -67.95417846 779.26391968 -73.90588379 779.26940918 C-84.87612773 779.27776943 -95.84634782 779.27707202 -106.81659301 779.27158624 C-116.95407139 779.26654221 -127.09154169 779.26524773 -137.22902107 779.26763153 C-138.24023521 779.26786069 -138.24023521 779.26786069 -139.27187791 779.26809447 C-142.00890047 779.26871722 -144.74592303 779.26935402 -147.48294558 779.270014 C-173.12544275 779.27612333 -198.76792586 779.27059898 -224.41042085 779.2598202 C-247.1578174 779.25033105 -269.90519154 779.25117835 -292.65258789 779.26074219 C-318.24862466 779.2714679 -343.84464901 779.27568886 -369.44068772 779.26951766 C-372.1728462 779.26887629 -374.90500468 779.26825061 -377.63716316 779.26763153 C-378.30981963 779.26747338 -378.98247609 779.26731522 -379.67551609 779.26715227 C-389.80223486 779.264884 -399.92894463 779.26752541 -410.05566216 779.27259064 C-421.57902737 779.27821391 -433.10236535 779.27665271 -444.62572747 779.26602915 C-450.49933864 779.26079173 -456.37290449 779.25868263 -462.24651527 779.26532745 C-467.63339155 779.27132922 -473.02018092 779.26794272 -478.40704942 779.25737235 C-480.34560962 779.25515611 -482.2841773 779.25623414 -484.2227326 779.26112393 C-500.96015742 779.30007143 -517.09961665 778.06686102 -533.4375 774.1875 C-534.50419922 773.95224609 -535.57089844 773.71699219 -536.66992188 773.47460938 C-543.90062315 771.79376912 -550.36268135 769.31659728 -557 766 C-557.33 766.66 -557.66 767.32 -558 768 C-558.20625 767.38125 -558.4125 766.7625 -558.625 766.125 C-560.57045913 763.11838134 -562.60872838 762.97825143 -566 762 C-567.03125 761.443125 -568.0625 760.88625 -569.125 760.3125 C-571.84095251 758.76548127 -571.84095251 758.76548127 -574.375 759.3125 C-574.91125 759.539375 -575.4475 759.76625 -576 760 C-576 758.68 -576 757.36 -576 756 C-576.6909375 755.76152344 -577.381875 755.52304687 -578.09375 755.27734375 C-581.54098296 753.76222926 -584.46854606 751.76290644 -587.5 749.5625 C-588.10513428 749.12655518 -588.71026855 748.69061035 -589.33374023 748.24145508 C-596.82806044 742.76637027 -604.13548299 736.88701784 -610.68359375 730.30078125 C-612.97359874 727.87835881 -612.97359874 727.87835881 -616 726 C-617.2375 724.4840625 -617.2375 724.4840625 -618.5 722.9375 C-620.7316929 719.80193204 -620.7316929 719.80193204 -624 719 C-624.061875 718.29875 -624.12375 717.5975 -624.1875 716.875 C-625.30780571 712.91084133 -627.16066526 710.97783887 -630 708 C-630.66 708 -631.32 708 -632 708 C-632.5878125 706.515 -632.5878125 706.515 -633.1875 705 C-635.35980966 699.92093313 -638.07681249 694.92318751 -642 691 C-642.75135738 689.61823803 -643.4553194 688.21035938 -644.12890625 686.7890625 C-644.52400391 685.95632813 -644.91910156 685.12359375 -645.32617188 684.265625 C-645.73416016 683.39421875 -646.14214844 682.5228125 -646.5625 681.625 C-647.1802832 680.32949219 -647.1802832 680.32949219 -647.81054688 679.0078125 C-651.13869797 671.94842819 -651.13869797 671.94842819 -652 668 C-652.99 668 -653.98 668 -655 668 C-654.67 667.01 -654.34 666.02 -654 665 C-654.82212358 662.46785938 -655.71395636 660.0354923 -656.6875 657.5625 C-659.14923538 650.96338216 -660.99164355 644.4063957 -662.375 637.5 C-662.54217529 636.68861572 -662.70935059 635.87723145 -662.8815918 635.04125977 C-663.91508969 629.61609001 -664.14354399 624.5209225 -664 619 C-664.66 618.67 -665.32 618.34 -666 618 C-666.13563187 607.58758299 -666.26604528 597.17511178 -666.39115143 586.76256275 C-666.44948881 581.91841905 -666.50912299 577.0743019 -666.57275391 572.23022461 C-666.88948103 548.02604773 -667.03837429 523.82440225 -667.02818167 499.61814688 C-667.02732473 497.40398774 -667.02685685 495.18982878 -667.02647305 492.9756695 C-667.01982991 459.92529425 -666.92165886 426.87529648 -666.80645686 393.8251486 C-666.77753531 385.51454343 -666.74999918 377.20393379 -666.72249681 368.89332382 C-666.67347577 354.09041918 -666.62345934 339.2875181 -666.57275391 324.48461914 C-666.52369933 310.16300638 -666.47515282 295.84139204 -666.42724609 281.51977539 C-666.4242591 280.62686966 -666.4212721 279.73396393 -666.41819459 278.81400045 C-666.40320259 274.33153252 -666.38822012 269.84906456 -666.37324238 265.36659658 C-666.25030365 228.57772601 -666.12572332 191.78886115 -666 155 C-665.34 155 -664.68 155 -664 155 C-664.020625 153.824375 -664.04125 152.64875 -664.0625 151.4375 C-664.00601376 119.24034459 -645.08203532 83.82207869 -624.08203125 60.37109375 C-621.98929451 58.19034883 -621.98929451 58.19034883 -621 56 C-620.34 56 -619.68 56 -619 56 C-618.566875 55.071875 -618.566875 55.071875 -618.125 54.125 C-617 52 -617 52 -615 50 C-615.99 49.34 -616.98 48.68 -618 48 C-616.44925781 47.65582031 -616.44925781 47.65582031 -614.8671875 47.3046875 C-610.76827458 46.12622433 -608.28125864 44.0133534 -605.125 41.125 C-581.44257131 20.32595022 -546.64374215 0.87584464 -514 2 C-513.67 1.34 -513.34 0.68 -513 0 C-469.02040711 -0.1532674 -425.04079292 -0.29821571 -381.06114011 -0.4332476 C-375.76911276 -0.4495024 -370.47708562 -0.46582041 -365.18505859 -0.48217773 C-363.60592992 -0.48705712 -363.60592992 -0.48705712 -361.99489966 -0.49203508 C-347.38495803 -0.53730842 -332.77503117 -0.58593697 -318.16511017 -0.6374263 C-292.87572287 -0.72654914 -267.58632215 -0.80862418 -242.296875 -0.87890625 C-241.30189302 -0.88168644 -240.30691104 -0.88446663 -239.2817781 -0.88733107 C-159.51654808 -1.10877229 -79.76167467 -0.7563789 0 0 Z " fill="#4C4181" transform="translate(770,128)"/>
<path d="M0 0 C2.73342415 2.19570137 5.37440915 4.45632498 7.984375 6.796875 C8.61859375 7.34859375 9.2528125 7.9003125 9.90625 8.46875 C22.99512903 20.59697736 30.80550217 37.76684485 34.984375 54.796875 C35.1594458 55.40039795 35.3345166 56.0039209 35.51489258 56.62573242 C38.69154151 71.31628829 36.59724173 88.62074797 31.984375 102.796875 C31.70722656 103.70695313 31.43007813 104.61703125 31.14453125 105.5546875 C26.98064264 117.48988894 18.67084001 127.84433809 9.984375 136.796875 C9.36175781 137.49296875 8.73914063 138.1890625 8.09765625 138.90625 C-5.72554308 153.85964802 -27.22832116 162.22349875 -47.3203125 163.1796875 C-75.00918166 163.91975122 -99.0542709 155.64081767 -119.39208984 136.42480469 C-123.83883176 131.96602648 -127.48225142 126.99226631 -131.015625 121.796875 C-131.66144531 120.85457031 -132.30726563 119.91226563 -132.97265625 118.94140625 C-144.91143126 100.08386403 -148.53914461 75.52259723 -144.1796875 53.734375 C-143.13626717 49.60862959 -141.70108842 45.70020999 -140.015625 41.796875 C-139.72623047 41.11737793 -139.43683594 40.43788086 -139.13867188 39.73779297 C-130.88055631 20.87650248 -117.28629551 3.71952369 -99.015625 -6.203125 C-97.43201172 -7.10998047 -97.43201172 -7.10998047 -95.81640625 -8.03515625 C-66.00652901 -24.18075681 -27.14560441 -19.83176281 0 0 Z " fill="#FDFDFD" transform="translate(484.015625,434.203125)"/>
<path d="M0 0 C14.79132677 -0.55048627 26.09652389 4.65638976 36.9765625 14.1953125 C38.80052431 16.24319819 39.3445258 17.47993004 39.7265625 20.16015625 C40.3865625 20.16015625 41.0465625 20.16015625 41.7265625 20.16015625 C42.0978125 19.29197266 42.0978125 19.29197266 42.4765625 18.40625 C47.64145576 9.12558242 58.66530831 4.17035183 68.4140625 1.34765625 C83.04347601 -1.93038135 99.21222243 -0.38965534 112.19140625 7.37109375 C121.99808883 14.29168023 128.32065071 23.33108997 130.7265625 35.16015625 C131.89100318 45.51918953 131.85811194 55.86803547 131.82421875 66.2734375 C131.8223489 67.98121601 131.82092768 69.68899505 131.81993103 71.39677429 C131.81615042 75.84688858 131.80635932 80.29696916 131.79522705 84.74707031 C131.78309655 90.11043349 131.77858943 95.47380806 131.77277374 100.83718109 C131.76314427 108.94486278 131.74395682 117.05247079 131.7265625 125.16015625 C116.8765625 125.16015625 102.0265625 125.16015625 86.7265625 125.16015625 C86.68789063 117.07 86.68789063 117.07 86.6484375 108.81640625 C86.62325597 105.38927609 86.59691312 101.96223305 86.56640625 98.53515625 C86.51814791 93.10155971 86.47407453 87.66816494 86.45556641 82.234375 C86.44036616 77.85099689 86.40586138 73.46814841 86.35825348 69.08500671 C86.34347428 67.41701372 86.33552348 65.74894509 86.33467865 64.08088684 C86.50789426 52.00311714 86.50789426 52.00311714 81.7265625 41.16015625 C76.70953855 37.27196269 71.9704101 36.74389974 65.7265625 37.16015625 C60.14665503 38.50739627 56.40772851 40.63758086 52.7265625 45.16015625 C49.9591914 49.80340479 49.34009048 53.25467755 49.29418945 58.63427734 C49.2839978 59.35691772 49.27380615 60.07955811 49.26330566 60.82409668 C49.2333006 63.19400918 49.22392922 65.56351667 49.21484375 67.93359375 C49.19798774 69.58413015 49.17983625 71.23465378 49.16044617 72.88516235 C49.11303998 77.2153118 49.08317012 81.54540947 49.05700684 85.87573242 C49.02189898 91.07886024 48.96491301 96.28178931 48.91161346 101.48475647 C48.83320952 109.37653086 48.78252122 117.26804705 48.7265625 125.16015625 C33.5465625 125.16015625 18.3665625 125.16015625 2.7265625 125.16015625 C2.68917969 119.59914063 2.65179687 114.038125 2.61328125 108.30859375 C2.58299779 104.78121926 2.55184751 101.25389501 2.51757812 97.7265625 C2.46329169 92.13039706 2.41218016 86.53433099 2.38012695 80.93798828 C2.35407771 76.42501703 2.31366383 71.91238021 2.26337624 67.39961624 C2.24671848 65.67972607 2.2351974 63.95977806 2.22894859 62.23981857 C2.21929551 59.82667915 2.19122278 57.41439317 2.15893555 55.00146484 C2.16037064 54.29367889 2.16180573 53.58589294 2.1632843 52.85665894 C2.07630567 48.24658169 1.12123635 45.0911943 -1.2734375 41.16015625 C-6.08699596 36.7978689 -10.95475123 36.81857585 -17.19140625 36.87890625 C-22.80158403 37.39086164 -26.49589704 39.5267407 -30.5859375 43.28515625 C-35.88172236 52.30760453 -35.74270006 62.06529698 -35.78515625 72.23046875 C-35.8020335 73.76318776 -35.82018776 75.29589318 -35.83955383 76.82858276 C-35.88672993 80.82987216 -35.91674742 84.83110646 -35.94299316 88.83258057 C-35.97824865 93.65118961 -36.03516766 98.46958721 -36.08838654 103.2880249 C-36.16651999 110.57870713 -36.21741205 117.86911986 -36.2734375 125.16015625 C-51.1234375 125.16015625 -65.9734375 125.16015625 -81.2734375 125.16015625 C-81.2734375 84.90015625 -81.2734375 44.64015625 -81.2734375 3.16015625 C-66.4234375 3.16015625 -51.5734375 3.16015625 -36.2734375 3.16015625 C-35.7784375 11.08015625 -35.7784375 11.08015625 -35.2734375 19.16015625 C-33.9740625 17.61328125 -32.6746875 16.06640625 -31.3359375 14.47265625 C-27.06445957 9.72507953 -23.05682762 6.76960483 -17.2734375 4.16015625 C-16.0978125 3.58265625 -14.9221875 3.00515625 -13.7109375 2.41015625 C-9.11526111 0.7390012 -4.81347753 0.33909378 0 0 Z " fill="#FDFCFD" transform="translate(618.2734375,463.83984375)"/>
<path d="M0 0 C51.48 0 102.96 0 156 0 C156 13.2 156 26.4 156 40 C138.51 40 121.02 40 103 40 C103 82.57 103 125.14 103 169 C86.83 169 70.66 169 54 169 C54 126.76 54 84.52 54 41 C36.18 41 18.36 41 0 41 C0 27.47 0 13.94 0 0 Z " fill="#FEFEFE" transform="translate(181,420)"/>
<path d="M0 0 C8.01223416 7.47370695 13.32011065 16.98519763 13.9453125 28.09765625 C13.60986724 39.66065183 8.81192484 48.53552353 0.94921875 56.64453125 C-17.59804435 73.90193672 -45.45156592 74.96567798 -69.28759766 74.13671875 C-88.18383107 73.15006227 -108.56173107 67.7439189 -121.8671875 53.53515625 C-130.1034151 43.66180964 -131.48928175 33.42436855 -130.4296875 20.97265625 C-128.81708263 13.44392868 -124.51461706 7.61409098 -119.4296875 1.97265625 C-118.95273437 1.44027344 -118.47578125 0.90789062 -117.984375 0.359375 C-90.33991169 -26.48904356 -28.37970516 -23.68017199 0 0 Z " fill="#483C7E" transform="translate(488.4296875,481.02734375)"/>
<path d="M0 0 C14.85 0 29.7 0 45 0 C45 40.26 45 80.52 45 122 C30.15 122 15.3 122 0 122 C0 81.74 0 41.48 0 0 Z " fill="#FCFCFD" transform="translate(775,467)"/>
<path d="M0 0 C14.85 0 29.7 0 45 0 C45 10.89 45 21.78 45 33 C30.15 33 15.3 33 0 33 C0 22.11 0 11.22 0 0 Z " fill="#FDFCFD" transform="translate(775,420)"/>
<path d="M0 0 C0.99 0 1.98 0 3 0 C3.33 155.76 3.66 311.52 4 472 C3.67 472 3.34 472 3 472 C2.87625 470.88625 2.7525 469.7725 2.625 468.625 C2.3534187 464.96896323 2.3534187 464.96896323 0 463 C-0.21795034 460.53071227 -0.31139525 458.17026756 -0.31884766 455.69799805 C-0.32889328 454.94047241 -0.3389389 454.18294678 -0.34928894 453.40246582 C-0.38050823 450.85555736 -0.39735367 448.3087609 -0.4140625 445.76171875 C-0.43286444 443.9344657 -0.45244373 442.1072205 -0.4727478 440.27998352 C-0.51391136 436.39151969 -0.54852765 432.50307079 -0.578125 428.61450195 C-0.61392637 423.91732436 -0.65973731 419.22034097 -0.71091282 414.52330816 C-0.96048285 391.2235402 -1.02794144 367.92395094 -1.0233537 344.62297486 C-1.02294006 342.40849386 -1.022763 340.19401292 -1.02261066 337.97953188 C-1.01913846 304.9278525 -0.92166426 271.87659893 -0.8064568 238.82514867 C-0.77753547 230.51454347 -0.74999918 222.20393381 -0.72249681 213.89332382 C-0.67347577 199.09041918 -0.62345934 184.2875181 -0.57275391 169.48461914 C-0.52369933 155.16300638 -0.47515282 140.84139204 -0.42724609 126.51977539 C-0.4242591 125.62686966 -0.4212721 124.73396393 -0.41819459 123.81400045 C-0.40320259 119.33153252 -0.38822012 114.84906456 -0.37324238 110.36659658 C-0.25030365 73.57772601 -0.12572332 36.78886115 0 0 Z " fill="#463779" transform="translate(104,283)"/>
<path d="M0 0 C4.87756575 0.63227704 7.32315468 2.64670908 10.375 6.4375 C15.69155647 15.5582787 15.80887895 26.85336195 13.609375 36.953125 C12.01217944 42.09964404 10.32595067 46.61824769 6.375 50.4375 C3.27451072 51.98774464 0.79605782 51.72742015 -2.625 51.4375 C-7.88826127 48.62226723 -9.75959061 43.85998907 -11.625 38.4375 C-14.05669736 29.06499758 -14.04503385 17.20222276 -9.84375 8.39453125 C-8.0782523 5.55954936 -6.18421302 3.58170551 -3.625 1.4375 C-2.625 0.4375 -2.625 0.4375 0 0 Z " fill="#64C8F2" transform="translate(393.625,483.5625)"/>
<path d="M0 0 C6.2154096 1.79088073 8.52490349 5.96982628 11.5625 11.4375 C15.06590107 22.24140152 13.37004131 35.94589841 8.6875 46.0625 C6.28710711 49.53189378 5.36855724 50.83548092 1.3125 52.1875 C-2.48920008 52.05640689 -4.205304 51.42334619 -6.9609375 48.79296875 C-13.91315771 39.89171571 -14.08785271 28.8312876 -13.3125 18.0625 C-12.25047561 11.94024173 -10.19173409 6.91154261 -6.3125 2.0625 C-3.3125 0.0625 -3.3125 0.0625 0 0 Z " fill="#64C9F2" transform="translate(465.3125,483.9375)"/>
<path d="M0 0 C0.91765137 -0.00315216 1.83530273 -0.00630432 2.78076172 -0.009552 C4.27760498 -0.00651566 4.27760498 -0.00651566 5.8046875 -0.00341797 C6.82191895 -0.00437469 7.83915039 -0.00533142 8.88720703 -0.00631714 C11.04264386 -0.00699908 13.19808272 -0.00514382 15.35351562 -0.00097656 C18.66541121 0.00437148 21.97717117 -0.0009211 25.2890625 -0.00732422 C27.37760447 -0.00666344 29.46614635 -0.00538228 31.5546875 -0.00341797 C32.55258301 -0.0054422 33.55047852 -0.00746643 34.57861328 -0.009552 C35.49626465 -0.00639984 36.41391602 -0.00324768 37.359375 0 C38.17132324 0.00079559 38.98327148 0.00159119 39.81982422 0.00241089 C41.6796875 0.12939453 41.6796875 0.12939453 42.6796875 1.12939453 C42.99717953 3.78398068 43.24088461 6.40293183 43.4296875 9.06689453 C43.53216797 10.17967773 43.53216797 10.17967773 43.63671875 11.31494141 C43.7890625 13.46923828 43.7890625 13.46923828 43.6796875 17.12939453 C42.6896875 17.78939453 41.6996875 18.44939453 40.6796875 19.12939453 C40.6796875 13.51939453 40.6796875 7.90939453 40.6796875 2.12939453 C25.8296875 2.12939453 10.9796875 2.12939453 -4.3203125 2.12939453 C-4.3203125 42.38939453 -4.3203125 82.64939453 -4.3203125 124.12939453 C-4.6503125 124.12939453 -4.9803125 124.12939453 -5.3203125 124.12939453 C-5.34364166 108.10945916 -5.36129176 92.08952927 -5.37212467 76.06958103 C-5.37728759 68.63174943 -5.38433021 61.19392836 -5.39575195 53.75610352 C-5.40569891 47.27558111 -5.41216596 40.79506634 -5.41440099 34.31453651 C-5.41570808 30.88108911 -5.4187938 27.44766353 -5.42604256 24.0142231 C-5.43405666 20.18745632 -5.43430363 16.36071118 -5.43383789 12.53393555 C-5.43743317 11.38738998 -5.44102844 10.24084442 -5.44473267 9.05955505 C-5.443358 8.02323944 -5.44198334 6.98692383 -5.44056702 5.91920471 C-5.44148881 5.01308221 -5.4424106 4.10695971 -5.44336033 3.17337894 C-5.21559751 -0.61005765 -3.31325286 0.00324651 0 0 Z " fill="#1A1449" transform="translate(541.3203125,464.87060546875)"/>
<path d="M0 0 C3.20001981 2.70223895 6.36759926 5.40635931 9.421875 8.2734375 C19.11929752 17.36835743 29.87323507 24.75877203 41 32 C38.65990863 32.83710586 37.50471009 33.22704118 35.19165039 32.18652344 C34.58313232 31.74856445 33.97461426 31.31060547 33.34765625 30.859375 C32.65961914 30.37090088 31.97158203 29.88242676 31.26269531 29.37915039 C30.53663086 28.84153076 29.81056641 28.30391113 29.0625 27.75 C28.31194336 27.20657959 27.56138672 26.66315918 26.78808594 26.10327148 C18.91522833 20.33402137 11.21193077 14.24271974 4.328125 7.30859375 C2.02796732 4.87998982 2.02796732 4.87998982 -1 3 C-0.67 2.01 -0.34 1.02 0 0 Z " fill="#443377" transform="translate(155,851)"/>
<path d="M0 0 C3.34249629 0.59687434 5.46436342 1.73603877 8 4 C8 4.66 8 5.32 8 6 C9.32 6.33 10.64 6.66 12 7 C12.33 8.32 12.66 9.64 13 11 C13.66 11 14.32 11 15 11 C18.2049566 14.49216249 21.056765 18.28625958 24 22 C24.72058594 22.8559375 25.44117188 23.711875 26.18359375 24.59375 C26.82425781 25.3671875 27.46492187 26.140625 28.125 26.9375 C28.99511719 27.97197266 28.99511719 27.97197266 29.8828125 29.02734375 C31 31 31 31 30.6796875 33.25390625 C30.45539062 33.83011719 30.23109375 34.40632813 30 35 C29.52691406 34.32195312 29.05382812 33.64390625 28.56640625 32.9453125 C24.40375933 27.08677239 20.04026616 21.62992728 15.1640625 16.3515625 C13.15813438 14.17183556 11.23097104 11.94402762 9.3125 9.6875 C6.45869495 6.39362221 3.38977763 3.7283576 0 1 C0 0.67 0 0.34 0 0 Z " fill="#443375" transform="translate(858,171)"/>
<path d="M0 0 C0.59224365 0.20608887 1.1844873 0.41217773 1.79467773 0.62451172 C0.25360352 1.64158203 0.25360352 1.64158203 -1.31860352 2.67919922 C-15.75212018 12.0400623 -15.75212018 12.0400623 -27.20532227 24.62451172 C-29.33032227 25.31201172 -29.33032227 25.31201172 -31.20532227 25.62451172 C-31.20532227 24.96451172 -31.20532227 24.30451172 -31.20532227 23.62451172 C-30.54532227 23.62451172 -29.88532227 23.62451172 -29.20532227 23.62451172 C-29.13571289 23.04830078 -29.06610352 22.47208984 -28.99438477 21.87841797 C-27.40619051 17.34184329 -22.66783972 14.80443938 -18.96166992 11.96875 C-17.72968023 11.02583434 -16.50324361 10.07563977 -15.28100586 9.12011719 C-13.28787843 7.56461227 -11.28051908 6.02958461 -9.26782227 4.49951172 C-8.6295752 4.00185303 -7.99132812 3.50419434 -7.33374023 2.99145508 C-2.7052428 -0.46060704 -2.7052428 -0.46060704 0 0 Z " fill="#433476" transform="translate(188.205322265625,153.37548828125)"/>
<path d="M0 0 C0.99 0.33 1.98 0.66 3 1 C2.66266846 1.52843506 2.32533691 2.05687012 1.9777832 2.60131836 C0.41999513 5.04500678 -1.13376508 7.49123271 -2.6875 9.9375 C-3.48317383 11.18370117 -3.48317383 11.18370117 -4.29492188 12.45507812 C-7.72892824 17.86943172 -10.95426328 23.35800941 -14 29 C-15.19448243 25.48514005 -15.04096963 25.08820521 -13.33984375 21.42578125 C-12.55251869 20.04691653 -11.75094906 18.67611626 -10.9375 17.3125 C-10.31983765 16.24708984 -10.31983765 16.24708984 -9.68969727 15.16015625 C-6.65682984 9.97548447 -3.47294862 4.90298629 0 0 Z " fill="#403073" transform="translate(137,199)"/>
<path d="M0 0 C5.66864955 0.36969454 9.68663218 2.14519917 14.66796875 4.84375 C16.81225584 5.90691412 18.69500622 6.4309848 21 7 C25.77777778 10.33333333 25.77777778 10.33333333 27 14 C23.09046451 12.85574571 19.77026169 11.36823429 16.27734375 9.28515625 C10.97878755 6.29506193 5.45453871 3.69322577 0 1 C0 0.67 0 0.34 0 0 Z " fill="#473979" transform="translate(809,141)"/>
<path d="M0 0 C0.66 0.33 1.32 0.66 2 1 C-0.6699587 4.14226187 -4.05833179 5.81616279 -7.6875 7.625 C-8.31092285 7.93767822 -8.9343457 8.25035645 -9.57666016 8.57250977 C-14.16922603 10.79008344 -17.93152137 11.89863043 -23 12 C-20.20206581 9.20206581 -16.7818398 8.07001028 -13.1875 6.5625 C-7.50570955 4.17823208 -7.50570955 4.17823208 -2.11328125 1.21484375 C-1.41589844 0.81394531 -0.71851563 0.41304687 0 0 Z " fill="#433275" transform="translate(827,883)"/>
<path d="M0 0 C-0.66 0 -1.32 0 -2 0 C-2 0.66 -2 1.32 -2 2 C-9.47321608 4.15721701 -16.21038876 5.46530864 -24 5 C-20.0788266 2.68912181 -15.82299799 1.83763328 -11.4375 0.8125 C-10.66986328 0.62236328 -9.90222656 0.43222656 -9.11132812 0.23632812 C-3.36444117 -1.12148039 -3.36444117 -1.12148039 0 0 Z " fill="#3C2A6F" transform="translate(798,898)"/>
<path d="M0 0 C1.32 0 2.64 0 4 0 C4.09539062 0.75410156 4.19078125 1.50820313 4.2890625 2.28515625 C5.75655671 7.88904896 11.22198439 10.93599066 15.9765625 13.78125 C18.62991018 15.23476346 21.2961525 16.64310594 24 18 C21 19 21 19 18.328125 17.8125 C2.28092358 8.36338648 2.28092358 8.36338648 0 0 Z " fill="#211A54" transform="translate(363,528)"/>
<path d="M0 0 C3.53191322 3.43153914 6.7137505 6.97375062 9.8125 10.8125 C10.60269531 11.78832031 11.39289063 12.76414062 12.20703125 13.76953125 C13.09455078 14.87361328 13.09455078 14.87361328 14 16 C13.67 16.66 13.34 17.32 13 18 C10.25556063 15.33397318 7.70000372 12.67898532 5.3125 9.6875 C4.549375 8.800625 3.78625 7.91375 3 7 C2.34 7 1.68 7 1 7 C0.67 4.69 0.34 2.38 0 0 Z " fill="#423273" transform="translate(137,829)"/>
<path d="M0 0 C2.584859 0.6191639 5.16776172 1.24507682 7.75 1.875 C8.47960937 2.04902344 9.20921875 2.22304688 9.9609375 2.40234375 C13.53285028 3.27908598 16.79373841 4.12686823 20 6 C13.03353618 6.52577085 7.30716757 5.03719493 1 2 C0.67 1.34 0.34 0.68 0 0 Z " fill="#3C2A71" transform="translate(224,896)"/>
<path d="M0 0 C1.32435978 3.97307934 0.18129186 6.80974568 -0.9375 10.6875 C-1.13279297 11.38939453 -1.32808594 12.09128906 -1.52929688 12.81445312 C-2.01199136 14.54508944 -2.50500846 16.27284066 -3 18 C-3.33 18 -3.66 18 -4 18 C-4.4033037 11.54714085 -3.64214341 6.91840123 -1 1 C-0.67 0.67 -0.34 0.34 0 0 Z " fill="#3E2D71" transform="translate(113,250)"/>
<path d="M0 0 C5.98993047 -0.3152595 9.63560356 0.31780178 15 3 C9.95607079 4.89147345 4.02805786 3.46651688 -1 2 C-0.67 1.34 -0.34 0.68 0 0 Z " fill="#3E2F72" transform="translate(782,133)"/>
<path d="M0 0 C5.28 0 10.56 0 16 0 C16 0.33 16 0.66 16 1 C15.01257813 1.13277344 14.02515625 1.26554688 13.0078125 1.40234375 C11.72648438 1.57894531 10.44515625 1.75554687 9.125 1.9375 C7.21074219 2.19853516 7.21074219 2.19853516 5.2578125 2.46484375 C2.12440546 2.81433227 2.12440546 2.81433227 0 4 C-2.125 3.0625 -2.125 3.0625 -4 2 C-2.68 2 -1.36 2 0 2 C0 1.34 0 0.68 0 0 Z " fill="#3C2B6F" transform="translate(243,131)"/>
<path d="M0 0 C0 3.96130371 -1.34877125 4.82914401 -4 7.6875 C-4.7425 8.49574219 -5.485 9.30398437 -6.25 10.13671875 C-6.8275 10.75160156 -7.405 11.36648437 -8 12 C-8.33 11.01 -8.66 10.02 -9 9 C-7.63671875 6.9921875 -7.63671875 6.9921875 -5.6875 4.875 C-5.05199219 4.17117187 -4.41648438 3.46734375 -3.76171875 2.7421875 C-2 1 -2 1 0 0 Z " fill="#403071" transform="translate(150,185)"/>
<path d="M0 0 C0.68359375 1.640625 0.68359375 1.640625 1 4 C-0.21484375 6.796875 -0.21484375 6.796875 -1.9375 9.75 C-2.50339844 10.73484375 -3.06929687 11.7196875 -3.65234375 12.734375 C-4.09707031 13.48203125 -4.54179688 14.2296875 -5 15 C-5.66 15 -6.32 15 -7 15 C-5.63408831 11.45756548 -4.09068516 8.07372071 -2.375 4.6875 C-1.70597656 3.36298828 -1.70597656 3.36298828 -1.0234375 2.01171875 C-0.68570313 1.34785156 -0.34796875 0.68398438 0 0 Z " fill="#3E2D71" transform="translate(898,808)"/>
<path d="M0 0 C3.05936637 3.75467691 5 7.08113061 5 12 C4.34 12 3.68 12 3 12 C2.67 10.68 2.34 9.36 2 8 C1.01 8 0.02 8 -1 8 C-0.67 7.01 -0.34 6.02 0 5 C0.03874921 3.33378384 0.0450286 1.66605828 0 0 Z " fill="#433274" transform="translate(116,788)"/>
<path d="M0 0 C1.72274487 2.58411731 2.68895522 4.54902656 3.6875 7.4375 C3.95949219 8.19933594 4.23148437 8.96117187 4.51171875 9.74609375 C5.04729142 12.21829721 4.80445309 13.62983284 4 16 C0.18211975 11.18615099 0.29932075 5.89352231 0 0 Z " fill="#3B296F" transform="translate(111,771)"/>
<path d="M0 0 C0.66 0.33 1.32 0.66 2 1 C-2.30366848 6.77921196 -2.30366848 6.77921196 -5.5625 7.8125 C-6.7690625 7.9053125 -6.7690625 7.9053125 -8 8 C-9.33542939 8.32483418 -10.66961551 8.6550855 -12 9 C-9.67350413 6.49280542 -7.17318479 4.67816399 -4.3125 2.8125 C-3.50425781 2.28269531 -2.69601562 1.75289062 -1.86328125 1.20703125 C-1.24839844 0.80871094 -0.63351562 0.41039062 0 0 Z " fill="#2B225E" transform="translate(484,579)"/>
<path d="M0 0 C0.66 0 1.32 0 2 0 C4.24828052 4.49656104 4.16682272 8.07872966 4 13 C1.99706653 9.99559979 1.50728374 8.29006055 0.875 4.8125 C0.70742188 3.91144531 0.53984375 3.01039063 0.3671875 2.08203125 C0.24601563 1.39496094 0.12484375 0.70789063 0 0 Z " fill="#413175" transform="translate(909,246)"/>
<path d="M0 0 C0.66 0.33 1.32 0.66 2 1 C0.57277341 2.1998278 -0.86715776 3.3845576 -2.3125 4.5625 C-3.51326172 5.55443359 -3.51326172 5.55443359 -4.73828125 6.56640625 C-5.85783203 7.27603516 -5.85783203 7.27603516 -7 8 C-7.99 7.67 -8.98 7.34 -10 7 C-6.7 4.69 -3.4 2.38 0 0 Z " fill="#402D72" transform="translate(846,871)"/>
<path d="M0 0 C-3.7559214 3.42931954 -8.23466745 4.56429083 -13 6 C-13 5.34 -13 4.68 -13 4 C-4.738041 -0.59225513 -4.738041 -0.59225513 0 0 Z " fill="#403072" transform="translate(210,143)"/>
<path d="M0 0 C2.97 0.33 5.94 0.66 9 1 C4.89277748 3.73814835 2.59424827 4.12140564 -2.1875 3.5625 C-3.08855469 3.46066406 -3.98960937 3.35882813 -4.91796875 3.25390625 C-5.60503906 3.17011719 -6.29210937 3.08632812 -7 3 C-7 2.67 -7 2.34 -7 2 C-4.69 2 -2.38 2 0 2 C0 1.34 0 0.68 0 0 Z " fill="#574A86" transform="translate(256,128)"/>
<path d="M0 0 C0.66 0 1.32 0 2 0 C2.50423019 5.29441695 1.18923033 7.81413519 -2 12 C-3.40907283 9.18185434 -2.50872691 7.82722796 -1.5625 4.875 C-1.27503906 3.96492187 -0.98757813 3.05484375 -0.69140625 2.1171875 C-0.46324219 1.41851563 -0.23507812 0.71984375 0 0 Z " fill="#3E2C6F" transform="translate(904,792)"/>
<path d="M0 0 C0.33 0 0.66 0 1 0 C1 3.96 1 7.92 1 12 C0.34 12 -0.32 12 -1 12 C-1.33 12.66 -1.66 13.32 -2 14 C-1.85795259 12.41632253 -1.71119847 10.83306682 -1.5625 9.25 C-1.48128906 8.36828125 -1.40007813 7.4865625 -1.31640625 6.578125 C-1.03761535 4.30649548 -0.61209423 2.20148177 0 0 Z " fill="#39276C" transform="translate(915,755)"/>
<path d="M0 0 C3.57983659 3.34118082 5.89716734 5.73768141 6.125 10.75 C6.08375 11.4925 6.0425 12.235 6 13 C2.57068046 9.2440786 1.43570917 4.76533255 0 0 Z " fill="#3C2B6E" transform="translate(901,227)"/>
<path d="M0 0 C3.29963329 1.09987776 3.61064772 1.45586748 5.25 4.3125 C5.60578125 4.90675781 5.9615625 5.50101563 6.328125 6.11328125 C7.15994803 8.4491564 6.7945524 9.69274206 6 12 C4.99466333 10.37829621 3.99588093 8.75252763 3 7.125 C2.443125 6.22007812 1.88625 5.31515625 1.3125 4.3828125 C0 2 0 2 0 0 Z " fill="#3E2D6F" transform="translate(891,209)"/>
<path d="M0 0 C-1.09898702 3.29696105 -1.94597387 4.04670589 -4.5625 6.1875 C-5.20316406 6.71730469 -5.84382812 7.24710938 -6.50390625 7.79296875 C-6.99761719 8.19128906 -7.49132812 8.58960938 -8 9 C-8.66 8.67 -9.32 8.34 -10 8 C-3.94594595 0 -3.94594595 0 0 0 Z " fill="#3C2C70" transform="translate(178,160)"/>
<path d="M0 0 C-3.21182149 1.90608098 -5.53882603 2.22266247 -9.25 2.125 C-10.14203125 2.10695313 -11.0340625 2.08890625 -11.953125 2.0703125 C-12.96632813 2.03550781 -12.96632813 2.03550781 -14 2 C-9.05952306 -0.55902083 -5.48596918 -1.41067779 0 0 Z " fill="#423274" transform="translate(788,901)"/>
<path d="M0 0 C1 3 1 3 0 6 C-3.0625 7.6875 -3.0625 7.6875 -6 9 C-4.47291037 5.56404834 -2.40072955 2.88087546 0 0 Z " fill="#402F72" transform="translate(883,833)"/>
<path d="M0 0 C2.37948772 0.17625835 3.70225849 0.69719773 5.37890625 2.40234375 C6.62115486 3.90649092 7.81376056 5.45129851 9 7 C8.67 7.66 8.34 8.32 8 9 C5.06799526 6.14723863 2.35684596 3.34920216 0 0 Z " fill="#3C296F" transform="translate(142,838)"/>
<path d="M0 0 C0.33 0 0.66 0 1 0 C1.36504603 1.58086048 1.71660506 3.16483907 2.0625 4.75 C2.25972656 5.63171875 2.45695312 6.5134375 2.66015625 7.421875 C2.99825872 9.98679028 2.81158635 11.57091639 2 14 C-0.28062828 10.57905758 -0.21925007 9.31812778 -0.125 5.3125 C-0.10695313 4.31863281 -0.08890625 3.32476563 -0.0703125 2.30078125 C-0.04710938 1.54152344 -0.02390625 0.78226563 0 0 Z " fill="#362569" transform="translate(108,756)"/>
<path d="M0 0 C2.0625 1.5625 2.0625 1.5625 4 4 C3.75 7.75 3.75 7.75 3 11 C0.60236815 8.60236815 0.65719414 7.66726502 0.375 4.375 C0.30023437 3.55773437 0.22546875 2.74046875 0.1484375 1.8984375 C0.09945312 1.27195312 0.05046875 0.64546875 0 0 Z " fill="#3C2A6E" transform="translate(913,260)"/>
<path d="M0 0 C3.03061766 2.02041177 3.72239767 2.75685563 5 6 C5 6.99 5 7.98 5 9 C2 8 2 8 0.8125 6.1875 C0 4 0 4 0 0 Z " fill="#493A79" transform="translate(898,219)"/>
<path d="M0 0 C2.75 -0.3125 2.75 -0.3125 6 0 C8.375 2.5 8.375 2.5 10 5 C5.75354935 5 3.61475228 3.18249194 0 1 C0 0.67 0 0.34 0 0 Z " fill="#3F2E70" transform="translate(826,149)"/>
<path d="M0 0 C0.33 0.99 0.66 1.98 1 3 C-0.9375 5.6875 -0.9375 5.6875 -3 8 C-3.99 7.67 -4.98 7.34 -6 7 C-4.02 4.69 -2.04 2.38 0 0 Z " fill="#3D2C70" transform="translate(875,843)"/>
<path d="M0 0 C3.82097239 0.53069061 6.06171403 1.49701566 9 4 C7.35 4.33 5.7 4.66 4 5 C4 4.34 4 3.68 4 3 C2.68 2.34 1.36 1.68 0 1 C0 0.67 0 0.34 0 0 Z " fill="#3F2D74" transform="translate(206,889)"/>
<path d="M0 0 C0.33 0 0.66 0 1 0 C1.125 6.625 1.125 6.625 0 10 C-0.66 10 -1.32 10 -2 10 C-1.54177532 6.53058454 -1.10868317 3.32604951 0 0 Z " fill="#423074" transform="translate(911,775)"/>
<path d="M0 0 C1 4 1 4 1 4 Z M-3 4 C-2.01 4 -1.02 4 0 4 C-0.33 6.31 -0.66 8.62 -1 11 C-3 8 -3 8 -3 4 Z " fill="#61BFEA" transform="translate(384,496)"/>
<path d="M0 0 C0.78375 0.185625 1.5675 0.37125 2.375 0.5625 C4.97089775 1.25962266 4.97089775 1.25962266 7 0 C7 1.65 7 3.3 7 5 C3.535 3.02 3.535 3.02 0 1 C0 0.67 0 0.34 0 0 Z " fill="#413174" transform="translate(838,156)"/>
<path d="M0 0 C3.79588866 0.54226981 5.47211993 2.20127563 8 5 C4.75791433 4.64950425 3.38472296 4.43778819 1.1875 1.9375 C0.795625 1.298125 0.40375 0.65875 0 0 Z " fill="#413173" transform="translate(858,171)"/>
<path d="M0 0 C1.98 0 3.96 0 6 0 C6 0.33 6 0.66 6 1 C4.02 1 2.04 1 0 1 C0 0.67 0 0.34 0 0 Z " fill="#534282" transform="translate(415,908)"/>
<path d="M0 0 C0.99 0 1.98 0 3 0 C2.67 0.66 2.34 1.32 2 2 C1.34 1.34 0.68 0.68 0 0 Z " fill="#524381" transform="translate(606,908)"/>
<path d="M0 0 C0.33 0.66 0.66 1.32 1 2 C0.01 1.67 -0.98 1.34 -2 1 C-1.34 0.67 -0.68 0.34 0 0 Z " fill="#52437E" transform="translate(106,765)"/>
<path d="M0 0 C1 4 1 4 1 4 Z " fill="#544480" transform="translate(105,756)"/>
<path d="M0 0 C0.99 0.495 0.99 0.495 2 1 C1.67 1.66 1.34 2.32 1 3 C0.67 2.01 0.34 1.02 0 0 Z " fill="#4F3F7B" transform="translate(862,168)"/>
<path d="M0 0 C0.66 0.33 1.32 0.66 2 1 C1.01 1 0.02 1 -1 1 C-0.67 0.67 -0.34 0.34 0 0 Z " fill="#54457E" transform="translate(162,168)"/>
<path d="M0 0 C0.99 0.495 0.99 0.495 2 1 C1.67 1.66 1.34 2.32 1 3 C0.67 2.01 0.34 1.02 0 0 Z " fill="#544580" transform="translate(194,144)"/>
<path d="M0 0 C3 1 3 1 3 1 Z " fill="#534281" transform="translate(706,908)"/>
<path d="M0 0 C3 1 3 1 3 1 Z " fill="#524280" transform="translate(626,908)"/>
<path d="M0 0 C3 1 3 1 3 1 Z " fill="#534381" transform="translate(337,908)"/>
<path d="M0 0 C0.66 0 1.32 0 2 0 C1.67 0.66 1.34 1.32 1 2 C0.67 1.34 0.34 0.68 0 0 Z " fill="#544381" transform="translate(306,908)"/>
<path d="M0 0 C3 1 3 1 3 1 Z " fill="#524281" transform="translate(286,908)"/>
<path d="M0 0 C0.66 0.66 1.32 1.32 2 2 C1.34 2 0.68 2 0 2 C0 1.34 0 0.68 0 0 Z " fill="#52437F" transform="translate(233,902)"/>
<path d="" fill="#53447F" transform="translate(0,0)"/>
<path d="" fill="#564980" transform="translate(0,0)"/>
<path d="" fill="#4F447C" transform="translate(0,0)"/>
<path d="M0 0 C0.33 0.66 0.66 1.32 1 2 C0.34 1.67 -0.32 1.34 -1 1 C-0.67 0.67 -0.34 0.34 0 0 Z " fill="#52427D" transform="translate(852,161)"/>
<path d="M0 0 C0.99 0.495 0.99 0.495 2 1 C1.01 1.495 1.01 1.495 0 2 C0 1.34 0 0.68 0 0 Z " fill="#52447C" transform="translate(182,153)"/>
<path d="M0 0 C2 1 2 1 2 1 Z " fill="#554782" transform="translate(745,908)"/>
<path d="M0 0 C2 1 2 1 2 1 Z " fill="#534481" transform="translate(718,908)"/>
<path d="M0 0 C2 1 2 1 2 1 Z " fill="#514480" transform="translate(690,908)"/>
<path d="M0 0 C2 1 2 1 2 1 Z " fill="#52437F" transform="translate(686,908)"/>
<path d="M0 0 C2 1 2 1 2 1 Z " fill="#504280" transform="translate(662,908)"/>
<path d="M0 0 C2 1 2 1 2 1 Z " fill="#544482" transform="translate(590,908)"/>
<path d="M0 0 C2 1 2 1 2 1 Z " fill="#554482" transform="translate(538,908)"/>
<path d="M0 0 C2 1 2 1 2 1 Z " fill="#524480" transform="translate(498,908)"/>
<path d="M0 0 C2 1 2 1 2 1 Z " fill="#524281" transform="translate(449,908)"/>
<path d="M0 0 C2 1 2 1 2 1 Z " fill="#534282" transform="translate(430,908)"/>
<path d="M0 0 C2 1 2 1 2 1 Z " fill="#524482" transform="translate(359,908)"/>
<path d="M0 0 C2 1 2 1 2 1 Z " fill="#554383" transform="translate(346,908)"/>
<path d="M0 0 C2 1 2 1 2 1 Z " fill="#4F4280" transform="translate(334,908)"/>
<path d="M0 0 C2 1 2 1 2 1 Z " fill="#534380" transform="translate(319,908)"/>
<path d="M0 0 C2 1 2 1 2 1 Z " fill="#53437E" transform="translate(766,907)"/>
<path d="M0 0 C2 1 2 1 2 1 Z " fill="#4F407C" transform="translate(229,903)"/>
<path d="M0 0 C2 1 2 1 2 1 Z " fill="#51417C" transform="translate(196,887)"/>
<path d="M0 0 C2 1 2 1 2 1 Z " fill="#4F3E7B" transform="translate(176,879)"/>
<path d="" fill="#504180" transform="translate(0,0)"/>
<path d="" fill="#50437E" transform="translate(0,0)"/>
<path d="" fill="#52417C" transform="translate(0,0)"/>
<path d="M0 0 C2 1 2 1 2 1 Z " fill="#4F407C" transform="translate(144,847)"/>
<path d="" fill="#4C417B" transform="translate(0,0)"/>
<path d="M0 0 C2 1 2 1 2 1 Z " fill="#50427E" transform="translate(138,837)"/>
<path d="" fill="#54457D" transform="translate(0,0)"/>
<path d="" fill="#50427D" transform="translate(0,0)"/>
<path d="M0 0 C2 1 2 1 2 1 Z " fill="#4F427F" transform="translate(124,815)"/>
<path d="" fill="#52447D" transform="translate(0,0)"/>
<path d="" fill="#534483" transform="translate(0,0)"/>
<path d="M0 0 C2 1 2 1 2 1 Z " fill="#52427D" transform="translate(916,769)"/>
<path d="" fill="#554783" transform="translate(0,0)"/>
<path d="" fill="#53447E" transform="translate(0,0)"/>
<path d="" fill="#53417B" transform="translate(0,0)"/>
<path d="M0 0 C2 1 2 1 2 1 Z " fill="#52467F" transform="translate(898,216)"/>
<path d="" fill="#4F437A" transform="translate(0,0)"/>
<path d="" fill="#4F3F78" transform="translate(0,0)"/>
<path d="" fill="#51447D" transform="translate(0,0)"/>
<path d="" fill="#52467D" transform="translate(0,0)"/>
<path d="" fill="#51427D" transform="translate(0,0)"/>
<path d="M0 0 C2 1 2 1 2 1 Z " fill="#50417A" transform="translate(171,160)"/>
<path d="M0 0 C2 1 2 1 2 1 Z " fill="#544881" transform="translate(193,147)"/>
<path d="" fill="#51437C" transform="translate(0,0)"/>
<path d="M0 0 C2 1 2 1 2 1 Z " fill="#51447E" transform="translate(808,137)"/>
<path d="" fill="#50457C" transform="translate(0,0)"/>
<path d="" fill="#544580" transform="translate(0,0)"/>
<path d="M0 0 C2 1 2 1 2 1 Z " fill="#534780" transform="translate(774,128)"/>
<path d="M0 0 C2 1 2 1 2 1 Z " fill="#554881" transform="translate(771,128)"/>
<path d="" fill="#29233F" transform="translate(0,0)"/>
<path d="" fill="#3B325C" transform="translate(0,0)"/>
<path d="" fill="#514181" transform="translate(0,0)"/>
<path d="" fill="#504680" transform="translate(0,0)"/>
<path d="" fill="#50437F" transform="translate(0,0)"/>
<path d="" fill="#504281" transform="translate(0,0)"/>
<path d="" fill="#4E4381" transform="translate(0,0)"/>
<path d="" fill="#534084" transform="translate(0,0)"/>
<path d="" fill="#514081" transform="translate(0,0)"/>
<path d="" fill="#524580" transform="translate(0,0)"/>
<path d="" fill="#4F427E" transform="translate(0,0)"/>
<path d="" fill="#54427D" transform="translate(0,0)"/>
<path d="" fill="#534481" transform="translate(0,0)"/>
<path d="" fill="#534581" transform="translate(0,0)"/>
<path d="" fill="#514581" transform="translate(0,0)"/>
<path d="" fill="#564481" transform="translate(0,0)"/>
<path d="" fill="#544380" transform="translate(0,0)"/>
<path d="" fill="#524382" transform="translate(0,0)"/>
<path d="" fill="#534280" transform="translate(0,0)"/>
<path d="" fill="#514383" transform="translate(0,0)"/>
<path d="" fill="#544482" transform="translate(0,0)"/>
<path d="" fill="#564483" transform="translate(0,0)"/>
<path d="" fill="#544281" transform="translate(0,0)"/>
<path d="" fill="#544583" transform="translate(0,0)"/>
<path d="" fill="#504580" transform="translate(0,0)"/>
<path d="" fill="#504481" transform="translate(0,0)"/>
<path d="" fill="#514280" transform="translate(0,0)"/>
<path d="" fill="#514183" transform="translate(0,0)"/>
<path d="" fill="#534180" transform="translate(0,0)"/>
<path d="" fill="#53437F" transform="translate(0,0)"/>
<path d="" fill="#534181" transform="translate(0,0)"/>
<path d="" fill="#554380" transform="translate(0,0)"/>
<path d="" fill="#524181" transform="translate(0,0)"/>
<path d="" fill="#564281" transform="translate(0,0)"/>
<path d="" fill="#564384" transform="translate(0,0)"/>
<path d="" fill="#514484" transform="translate(0,0)"/>
<path d="" fill="#524381" transform="translate(0,0)"/>
<path d="" fill="#514380" transform="translate(0,0)"/>
<path d="" fill="#514584" transform="translate(0,0)"/>
<path d="" fill="#514081" transform="translate(0,0)"/>
<path d="" fill="#4F4382" transform="translate(0,0)"/>
<path d="" fill="#534482" transform="translate(0,0)"/>
<path d="" fill="#524482" transform="translate(0,0)"/>
<path d="" fill="#524382" transform="translate(0,0)"/>
<path d="" fill="#534484" transform="translate(0,0)"/>
<path d="" fill="#534280" transform="translate(0,0)"/>
<path d="" fill="#4F4484" transform="translate(0,0)"/>
<path d="" fill="#534480" transform="translate(0,0)"/>
<path d="" fill="#544481" transform="translate(0,0)"/>
<path d="" fill="#51447F" transform="translate(0,0)"/>
<path d="" fill="#534584" transform="translate(0,0)"/>
<path d="" fill="#534280" transform="translate(0,0)"/>
<path d="" fill="#554483" transform="translate(0,0)"/>
<path d="" fill="#54457F" transform="translate(0,0)"/>
<path d="" fill="#524380" transform="translate(0,0)"/>
<path d="" fill="#524283" transform="translate(0,0)"/>
<path d="" fill="#514380" transform="translate(0,0)"/>
<path d="" fill="#514583" transform="translate(0,0)"/>
<path d="" fill="#514183" transform="translate(0,0)"/>
<path d="" fill="#534483" transform="translate(0,0)"/>
<path d="" fill="#514583" transform="translate(0,0)"/>
<path d="" fill="#524482" transform="translate(0,0)"/>
<path d="" fill="#513F83" transform="translate(0,0)"/>
<path d="" fill="#544381" transform="translate(0,0)"/>
<path d="" fill="#524382" transform="translate(0,0)"/>
<path d="" fill="#514280" transform="translate(0,0)"/>
<path d="" fill="#534481" transform="translate(0,0)"/>
<path d="" fill="#524384" transform="translate(0,0)"/>
<path d="" fill="#524682" transform="translate(0,0)"/>
<path d="" fill="#534584" transform="translate(0,0)"/>
<path d="" fill="#554582" transform="translate(0,0)"/>
<path d="" fill="#534382" transform="translate(0,0)"/>
<path d="" fill="#554382" transform="translate(0,0)"/>
<path d="" fill="#52417F" transform="translate(0,0)"/>
<path d="" fill="#514280" transform="translate(0,0)"/>
<path d="" fill="#524580" transform="translate(0,0)"/>
<path d="" fill="#534383" transform="translate(0,0)"/>
<path d="" fill="#52417E" transform="translate(0,0)"/>
<path d="" fill="#4C417C" transform="translate(0,0)"/>
<path d="" fill="#52437E" transform="translate(0,0)"/>
<path d="" fill="#524280" transform="translate(0,0)"/>
<path d="" fill="#4A407E" transform="translate(0,0)"/>
<path d="" fill="#534280" transform="translate(0,0)"/>
<path d="" fill="#52447E" transform="translate(0,0)"/>
<path d="" fill="#54427F" transform="translate(0,0)"/>
<path d="" fill="#534680" transform="translate(0,0)"/>
<path d="" fill="#504080" transform="translate(0,0)"/>
<path d="" fill="#524181" transform="translate(0,0)"/>
<path d="" fill="#52427B" transform="translate(0,0)"/>
<path d="" fill="#51427F" transform="translate(0,0)"/>
<path d="" fill="#0D0914" transform="translate(0,0)"/>
<path d="" fill="#4E417F" transform="translate(0,0)"/>
<path d="" fill="#524180" transform="translate(0,0)"/>
<path d="" fill="#51427E" transform="translate(0,0)"/>
<path d="" fill="#554480" transform="translate(0,0)"/>
<path d="" fill="#51427E" transform="translate(0,0)"/>
<path d="" fill="#52437D" transform="translate(0,0)"/>
<path d="" fill="#50407F" transform="translate(0,0)"/>
<path d="" fill="#544581" transform="translate(0,0)"/>
<path d="" fill="#4F3F7D" transform="translate(0,0)"/>
<path d="" fill="#4D3E7F" transform="translate(0,0)"/>
<path d="" fill="#51437F" transform="translate(0,0)"/>
<path d="" fill="#50407F" transform="translate(0,0)"/>
<path d="" fill="#544682" transform="translate(0,0)"/>
<path d="" fill="#55437F" transform="translate(0,0)"/>
<path d="" fill="#4F407F" transform="translate(0,0)"/>
<path d="" fill="#4E447C" transform="translate(0,0)"/>
<path d="" fill="#51417F" transform="translate(0,0)"/>
<path d="" fill="#4F417C" transform="translate(0,0)"/>
<path d="" fill="#50427F" transform="translate(0,0)"/>
<path d="" fill="#4B3F78" transform="translate(0,0)"/>
<path d="" fill="#3E335C" transform="translate(0,0)"/>
<path d="" fill="#52467F" transform="translate(0,0)"/>
<path d="" fill="#52417D" transform="translate(0,0)"/>
<path d="" fill="#51447F" transform="translate(0,0)"/>
<path d="" fill="#51417C" transform="translate(0,0)"/>
<path d="" fill="#50437E" transform="translate(0,0)"/>
<path d="" fill="#51407E" transform="translate(0,0)"/>
<path d="" fill="#4F427A" transform="translate(0,0)"/>
<path d="" fill="#4E437B" transform="translate(0,0)"/>
<path d="" fill="#53467E" transform="translate(0,0)"/>
<path d="" fill="#54427D" transform="translate(0,0)"/>
<path d="" fill="#53407B" transform="translate(0,0)"/>
<path d="" fill="#523F78" transform="translate(0,0)"/>
<path d="" fill="#4F467E" transform="translate(0,0)"/>
<path d="" fill="#4F407D" transform="translate(0,0)"/>
<path d="" fill="#52457C" transform="translate(0,0)"/>
<path d="" fill="#54457F" transform="translate(0,0)"/>
<path d="" fill="#4F3F7C" transform="translate(0,0)"/>
<path d="" fill="#523D7B" transform="translate(0,0)"/>
<path d="" fill="#4F427A" transform="translate(0,0)"/>
<path d="" fill="#51417C" transform="translate(0,0)"/>
<path d="" fill="#53447D" transform="translate(0,0)"/>
<path d="" fill="#54467D" transform="translate(0,0)"/>
<path d="" fill="#4E3C7A" transform="translate(0,0)"/>
<path d="" fill="#54437E" transform="translate(0,0)"/>
<path d="" fill="#55447F" transform="translate(0,0)"/>
<path d="" fill="#4E407B" transform="translate(0,0)"/>
<path d="" fill="#4E427B" transform="translate(0,0)"/>
<path d="" fill="#50417E" transform="translate(0,0)"/>
<path d="" fill="#55457F" transform="translate(0,0)"/>
<path d="" fill="#51437E" transform="translate(0,0)"/>
<path d="" fill="#534080" transform="translate(0,0)"/>
<path d="" fill="#4F4580" transform="translate(0,0)"/>
<path d="" fill="#52427E" transform="translate(0,0)"/>
<path d="" fill="#534280" transform="translate(0,0)"/>
<path d="" fill="#514684" transform="translate(0,0)"/>
<path d="" fill="#55457E" transform="translate(0,0)"/>
<path d="" fill="#524481" transform="translate(0,0)"/>
<path d="" fill="#534681" transform="translate(0,0)"/>
<path d="" fill="#554783" transform="translate(0,0)"/>
<path d="" fill="#524680" transform="translate(0,0)"/>
<path d="" fill="#5A4A84" transform="translate(0,0)"/>
<path d="" fill="#594883" transform="translate(0,0)"/>
<path d="" fill="#544A82" transform="translate(0,0)"/>
<path d="" fill="#554883" transform="translate(0,0)"/>
<path d="" fill="#554883" transform="translate(0,0)"/>
<path d="" fill="#554683" transform="translate(0,0)"/>
<path d="" fill="#564883" transform="translate(0,0)"/>
<path d="" fill="#544A85" transform="translate(0,0)"/>
<path d="" fill="#534883" transform="translate(0,0)"/>
<path d="" fill="#382F57" transform="translate(0,0)"/>
<path d="" fill="#564781" transform="translate(0,0)"/>
<path d="" fill="#564982" transform="translate(0,0)"/>
<path d="" fill="#574784" transform="translate(0,0)"/>
<path d="" fill="#564983" transform="translate(0,0)"/>
<path d="" fill="#574B84" transform="translate(0,0)"/>
<path d="" fill="#504277" transform="translate(0,0)"/>
<path d="" fill="#554984" transform="translate(0,0)"/>
<path d="" fill="#574885" transform="translate(0,0)"/>
<path d="" fill="#463B6B" transform="translate(0,0)"/>
<path d="" fill="#54467E" transform="translate(0,0)"/>
<path d="" fill="#53447D" transform="translate(0,0)"/>
<path d="" fill="#52477F" transform="translate(0,0)"/>
<path d="" fill="#524581" transform="translate(0,0)"/>
<path d="" fill="#53447E" transform="translate(0,0)"/>
<path d="" fill="#54447E" transform="translate(0,0)"/>
<path d="" fill="#51437D" transform="translate(0,0)"/>
<path d="" fill="#53467F" transform="translate(0,0)"/>
<path d="" fill="#50447B" transform="translate(0,0)"/>
<path d="" fill="#51437D" transform="translate(0,0)"/>
<path d="" fill="#544681" transform="translate(0,0)"/>
<path d="" fill="#52437C" transform="translate(0,0)"/>
<path d="" fill="#544380" transform="translate(0,0)"/>
<path d="" fill="#51457F" transform="translate(0,0)"/>
<path d="" fill="#544680" transform="translate(0,0)"/>
<path d="" fill="#4E437F" transform="translate(0,0)"/>
<path d="" fill="#53437D" transform="translate(0,0)"/>
<path d="" fill="#4F467F" transform="translate(0,0)"/>
<path d="" fill="#504478" transform="translate(0,0)"/>
<path d="" fill="#51417C" transform="translate(0,0)"/>
<path d="" fill="#51447D" transform="translate(0,0)"/>
<path d="" fill="#51467B" transform="translate(0,0)"/>
<path d="" fill="#4F467D" transform="translate(0,0)"/>
<path d="" fill="#53447F" transform="translate(0,0)"/>
<path d="" fill="#56467F" transform="translate(0,0)"/>
<path d="" fill="#52437E" transform="translate(0,0)"/>
<path d="" fill="#55477F" transform="translate(0,0)"/>
<path d="" fill="#504578" transform="translate(0,0)"/>
<path d="" fill="#54437E" transform="translate(0,0)"/>
<path d="" fill="#50447D" transform="translate(0,0)"/>
<path d="" fill="#4F3F79" transform="translate(0,0)"/>
<path d="" fill="#504179" transform="translate(0,0)"/>
<path d="" fill="#534880" transform="translate(0,0)"/>
<path d="" fill="#50447E" transform="translate(0,0)"/>
<path d="" fill="#4F4379" transform="translate(0,0)"/>
<path d="" fill="#50427D" transform="translate(0,0)"/>
<path d="" fill="#4E3F79" transform="translate(0,0)"/>
<path d="" fill="#4F447A" transform="translate(0,0)"/>
<path d="" fill="#564682" transform="translate(0,0)"/>
<path d="" fill="#544982" transform="translate(0,0)"/>
<path d="" fill="#51487C" transform="translate(0,0)"/>
<path d="" fill="#554480" transform="translate(0,0)"/>
<path d="" fill="#544780" transform="translate(0,0)"/>
<path d="" fill="#4F407B" transform="translate(0,0)"/>
<path d="" fill="#51447A" transform="translate(0,0)"/>
<path d="" fill="#52407B" transform="translate(0,0)"/>
<path d="" fill="#53437C" transform="translate(0,0)"/>
<path d="" fill="#4F427D" transform="translate(0,0)"/>
<path d="" fill="#53447C" transform="translate(0,0)"/>
<path d="" fill="#50417C" transform="translate(0,0)"/>
<path d="" fill="#4E427A" transform="translate(0,0)"/>
<path d="" fill="#4D447D" transform="translate(0,0)"/>
<path d="" fill="#4F457E" transform="translate(0,0)"/>
<path d="" fill="#51407D" transform="translate(0,0)"/>
<path d="" fill="#50407E" transform="translate(0,0)"/>
<path d="" fill="#54447C" transform="translate(0,0)"/>
<path d="" fill="#55497F" transform="translate(0,0)"/>
<path d="" fill="#52437E" transform="translate(0,0)"/>
<path d="" fill="#55477F" transform="translate(0,0)"/>
<path d="" fill="#554582" transform="translate(0,0)"/>
<path d="" fill="#50417E" transform="translate(0,0)"/>
<path d="" fill="#51447E" transform="translate(0,0)"/>
<path d="" fill="#554782" transform="translate(0,0)"/>
<path d="" fill="#4F467C" transform="translate(0,0)"/>
<path d="" fill="#51477D" transform="translate(0,0)"/>
<path d="" fill="#52437C" transform="translate(0,0)"/>
<path d="" fill="#544480" transform="translate(0,0)"/>
<path d="" fill="#51447C" transform="translate(0,0)"/>
<path d="" fill="#50427E" transform="translate(0,0)"/>
<path d="" fill="#50457F" transform="translate(0,0)"/>
<path d="" fill="#554580" transform="translate(0,0)"/>
<path d="" fill="#51417D" transform="translate(0,0)"/>
<path d="" fill="#524480" transform="translate(0,0)"/>
<path d="" fill="#514680" transform="translate(0,0)"/>
<path d="" fill="#534580" transform="translate(0,0)"/>
<path d="" fill="#53457E" transform="translate(0,0)"/>
<path d="" fill="#534580" transform="translate(0,0)"/>
<path d="" fill="#524580" transform="translate(0,0)"/>
<path d="" fill="#1C162B" transform="translate(0,0)"/>
<path d="" fill="#2B213F" transform="translate(0,0)"/>
</svg>
